<?xml version="1.0" encoding="UTF-8"?>
<svg id="Layer_1" xmlns="http://www.w3.org/2000/svg" version="1.1" viewBox="0 0 91.1 91.3">
  <!-- Generator: Adobe Illustrator 30.0.0, SVG Export Plug-In . SVG Version: 2.1.1 Build 123)  -->
  <defs>
    <style>
      .st0 {
        fill: #eef4cc;
      }

      .st1 {
        fill: #f56431;
      }

      .st2 {
        fill: #004225;
      }

      .st3 {
        fill: #e8dcea;
      }
    </style>
  </defs>
  <rect class="st2" width="91.1" height="91.3"/>
  <g>
    <g>
      <rect class="st2" x="4.9" y="46.8" width="39.8" height="39.6"/>
      <path class="st0" d="M46.7,88.4H2.8v-43.7h43.9v43.7ZM6.9,84.3h35.6v-35.5H6.9v35.5Z"/>
    </g>
    <path class="st3" d="M43.8,64.2h0c0-1-.8-1.9-1.9-1.9h-4.8c-.3,0-.6,0-.9.2s0,0,0,0c.1-.3.2-.6.2-.9v-4.8c0-1-.8-1.9-1.9-1.9h-4.8c-.3,0-.6,0-.8.2s0,0,0,0c0-.2.2-.5.2-.7v-4.8c0-1-.8-1.9-1.9-1.9h-4.8s0,0,0,0h0c-1,0-1.9.8-1.9,1.9v4.8c0,.3,0,.5.2.7s0,0,0,0c-.3-.1-.5-.2-.8-.2h-4.8c-1,0-1.9.8-1.9,1.9v4.8c0,.3,0,.6.2.9s0,0,0,0c-.3-.1-.6-.2-.9-.2h-4.8c-1,0-1.9.8-1.9,1.9h0v4.8h0c0,1,.8,1.9,1.9,1.9h4.8c.3,0,.6,0,.9-.2s0,0,0,0c-.1.3-.2.6-.2.9v4.8c0,1,.8,1.9,1.9,1.9h4.8c.3,0,.6,0,.8-.2s0,0,0,0c0,.2-.2.5-.2.7v4.8c0,1,.8,1.9,1.9,1.9h4.8c1,0,1.9-.8,1.9-1.9v-4.8c0-.3,0-.5-.2-.7s0,0,0,0c.3.1.5.2.8.2h4.8c1,0,1.9-.8,1.9-1.9v-4.8c0-.3,0-.6-.2-.9s0,0,0,0c.3.1.6.2.9.2h4.8c1,0,1.9-.8,1.9-1.9v-4.8h0ZM34.6,69.7h-4.8c-1,0-1.8.8-1.8,1.8v4.8c0,.3,0,.6.2.8-.2-.1-.5-.2-.8-.2,0,0,0,0,0,0,0,0,0,0-.1,0h-4.9s0,0-.1,0c0,0,0,0,0,0-.3,0-.6.1-.8.2.1-.2.2-.5.2-.8v-4.8c0-1-.8-1.8-1.8-1.8h-4.8c-.4,0-.7.1-1,.3.2-.2.2-.5.3-.8,0,0,0,0,0,0,0,0,0,0,0,0h0v-4.8h0c0,0,0,0,0-.1,0,0,0,0,0,0,0-.3-.1-.6-.3-.8.3.2.6.3,1,.3h4.8c1,0,1.8-.8,1.8-1.8v-4.8c0-.3,0-.6-.2-.8.2.1.5.2.8.2,0,0,0,0,0,0,0,0,0,0,.1,0h4.8s0,0,0,0h0s0,0,.1,0c0,0,0,0,0,0,.3,0,.6-.1.8-.2-.1.2-.2.5-.2.8v4.8c0,1,.8,1.8,1.8,1.8h4.8c.4,0,.7-.1,1-.3-.2.2-.2.5-.3.8,0,0,0,0,0,0,0,0,0,0,0,0v4.8h0c0,0,0,0,0,.1,0,0,0,0,0,0,0,.3.1.6.3.8-.3-.2-.6-.3-1-.3Z"/>
    <g>
      <rect class="st2" x="4.9" y="5" width="39.8" height="39.6"/>
      <path class="st0" d="M46.7,46.6H2.8V2.9h43.9v43.7ZM6.9,42.5h35.6V7H6.9v35.5Z"/>
    </g>
    <path class="st3" d="M43.8,22.4h0c0-1-.8-1.9-1.9-1.9h-4.8c-.3,0-.6,0-.9.2s0,0,0,0c.1-.3.2-.6.2-.9v-4.8c0-1-.8-1.9-1.9-1.9h-4.8c-.3,0-.6,0-.8.2s0,0,0,0c0-.2.2-.5.2-.7v-4.8c0-1-.8-1.9-1.9-1.9h-4.8s0,0,0,0h0c-1,0-1.9.8-1.9,1.9v4.8c0,.3,0,.5.2.7s0,0,0,0c-.3-.1-.5-.2-.8-.2h-4.8c-1,0-1.9.8-1.9,1.9v4.8c0,.3,0,.6.2.9s0,0,0,0c-.3-.1-.6-.2-.9-.2h-4.8c-1,0-1.9.8-1.9,1.9h0v4.8h0c0,1,.8,1.9,1.9,1.9h4.8c.3,0,.6,0,.9-.2s0,0,0,0c-.1.3-.2.6-.2.9v4.8c0,1,.8,1.9,1.9,1.9h4.8c.3,0,.6,0,.8-.2s0,0,0,0c0,.2-.2.5-.2.7v4.8c0,1,.8,1.9,1.9,1.9h4.8c1,0,1.9-.8,1.9-1.9v-4.8c0-.3,0-.5-.2-.7s0,0,0,0c.3.1.5.2.8.2h4.8c1,0,1.9-.8,1.9-1.9v-4.8c0-.3,0-.6-.2-.9s0,0,0,0c.3.1.6.2.9.2h4.8c1,0,1.9-.8,1.9-1.9v-4.8h0ZM34.6,27.9h-4.8c-1,0-1.8.8-1.8,1.8v4.8c0,.3,0,.6.2.8-.2-.1-.5-.2-.8-.2,0,0,0,0,0,0,0,0,0,0-.1,0h-4.9s0,0-.1,0c0,0,0,0,0,0-.3,0-.6.1-.8.2.1-.2.2-.5.2-.8v-4.8c0-1-.8-1.8-1.8-1.8h-4.8c-.4,0-.7.1-1,.3.2-.2.2-.5.3-.8,0,0,0,0,0,0,0,0,0,0,0,0h0v-4.8h0c0,0,0,0,0-.1,0,0,0,0,0,0,0-.3-.1-.6-.3-.8.3.2.6.3,1,.3h4.8c1,0,1.8-.8,1.8-1.8v-4.8c0-.3,0-.6-.2-.8.2.1.5.2.8.2,0,0,0,0,0,0,0,0,0,0,.1,0h4.8s0,0,0,0h0s0,0,.1,0c0,0,0,0,0,0,.3,0,.6-.1.8-.2-.1.2-.2.5-.2.8v4.8c0,1,.8,1.8,1.8,1.8h4.8c.4,0,.7-.1,1-.3-.2.2-.2.5-.3.8,0,0,0,0,0,0,0,0,0,0,0,0v4.8h0c0,0,0,0,0,.1,0,0,0,0,0,0,0,.3.1.6.3.8-.3-.2-.6-.3-1-.3Z"/>
    <g>
      <rect class="st2" x="46.6" y="46.8" width="39.8" height="39.6"/>
      <path class="st0" d="M88.4,88.4h-43.9v-43.7h43.9v43.7ZM48.6,84.3h35.6v-35.5h-35.6v35.5Z"/>
    </g>
    <path class="st3" d="M85.5,64.2h0c0-1-.8-1.9-1.9-1.9h-4.8c-.3,0-.6,0-.9.2s0,0,0,0c.1-.3.2-.6.2-.9v-4.8c0-1-.8-1.9-1.9-1.9h-4.8c-.3,0-.6,0-.8.2s0,0,0,0c0-.2.2-.5.2-.7v-4.8c0-1-.8-1.9-1.9-1.9h-4.8s0,0,0,0h0c-1,0-1.9.8-1.9,1.9v4.8c0,.3,0,.5.2.7s0,0,0,0c-.3-.1-.5-.2-.8-.2h-4.8c-1,0-1.9.8-1.9,1.9v4.8c0,.3,0,.6.2.9s0,0,0,0c-.3-.1-.6-.2-.9-.2h-4.8c-1,0-1.9.8-1.9,1.9h0v4.8h0c0,1,.8,1.9,1.9,1.9h4.8c.3,0,.6,0,.9-.2s0,0,0,0c-.1.3-.2.6-.2.9v4.8c0,1,.8,1.9,1.9,1.9h4.8c.3,0,.6,0,.8-.2s0,0,0,0c0,.2-.2.5-.2.7v4.8c0,1,.8,1.9,1.9,1.9h4.8c1,0,1.9-.8,1.9-1.9v-4.8c0-.3,0-.5-.2-.7s0,0,0,0c.3.1.5.2.8.2h4.8c1,0,1.9-.8,1.9-1.9v-4.8c0-.3,0-.6-.2-.9s0,0,0,0c.3.1.6.2.9.2h4.8c1,0,1.9-.8,1.9-1.9v-4.8h0ZM76.3,69.7h-4.8c-1,0-1.8.8-1.8,1.8v4.8c0,.3,0,.6.2.8-.2-.1-.5-.2-.8-.2,0,0,0,0,0,0,0,0,0,0-.1,0h-4.9s0,0-.1,0c0,0,0,0,0,0-.3,0-.6.1-.8.2.1-.2.2-.5.2-.8v-4.8c0-1-.8-1.8-1.8-1.8h-4.8c-.4,0-.7.1-1,.3.2-.2.2-.5.3-.8,0,0,0,0,0,0,0,0,0,0,0,0h0v-4.8h0c0,0,0,0,0-.1,0,0,0,0,0,0,0-.3-.1-.6-.3-.8.3.2.6.3,1,.3h4.8c1,0,1.8-.8,1.8-1.8v-4.8c0-.3,0-.6-.2-.8.2.1.5.2.8.2,0,0,0,0,0,0,0,0,0,0,.1,0h4.8s0,0,0,0h0s0,0,.1,0c0,0,0,0,0,0,.3,0,.6-.1.8-.2-.1.2-.2.5-.2.8v4.8c0,1,.8,1.8,1.8,1.8h4.8c.4,0,.7-.1,1-.3-.2.2-.2.5-.3.8,0,0,0,0,0,0,0,0,0,0,0,0v4.8h0c0,0,0,0,0,.1,0,0,0,0,0,0,0,.3.1.6.3.8-.3-.2-.6-.3-1-.3Z"/>
    <g>
      <rect class="st2" x="46.6" y="5" width="39.8" height="39.6"/>
      <path class="st0" d="M88.4,46.6h-43.9V2.9h43.9v43.7ZM48.6,42.5h35.6V7h-35.6v35.5Z"/>
    </g>
    <path class="st3" d="M85.5,22.4h0c0-1-.8-1.9-1.9-1.9h-4.8c-.3,0-.6,0-.9.2s0,0,0,0c.1-.3.2-.6.2-.9v-4.8c0-1-.8-1.9-1.9-1.9h-4.8c-.3,0-.6,0-.8.2s0,0,0,0c0-.2.2-.5.2-.7v-4.8c0-1-.8-1.9-1.9-1.9h-4.8s0,0,0,0h0c-1,0-1.9.8-1.9,1.9v4.8c0,.3,0,.5.2.7s0,0,0,0c-.3-.1-.5-.2-.8-.2h-4.8c-1,0-1.9.8-1.9,1.9v4.8c0,.3,0,.6.2.9s0,0,0,0c-.3-.1-.6-.2-.9-.2h-4.8c-1,0-1.9.8-1.9,1.9h0v4.8h0c0,1,.8,1.9,1.9,1.9h4.8c.3,0,.6,0,.9-.2s0,0,0,0c-.1.3-.2.6-.2.9v4.8c0,1,.8,1.9,1.9,1.9h4.8c.3,0,.6,0,.8-.2s0,0,0,0c0,.2-.2.5-.2.7v4.8c0,1,.8,1.9,1.9,1.9h4.8c1,0,1.9-.8,1.9-1.9v-4.8c0-.3,0-.5-.2-.7s0,0,0,0c.3.1.5.2.8.2h4.8c1,0,1.9-.8,1.9-1.9v-4.8c0-.3,0-.6-.2-.9s0,0,0,0c.3.1.6.2.9.2h4.8c1,0,1.9-.8,1.9-1.9v-4.8h0ZM76.3,27.9h-4.8c-1,0-1.8.8-1.8,1.8v4.8c0,.3,0,.6.2.8-.2-.1-.5-.2-.8-.2,0,0,0,0,0,0,0,0,0,0-.1,0h-4.9s0,0-.1,0c0,0,0,0,0,0-.3,0-.6.1-.8.2.1-.2.2-.5.2-.8v-4.8c0-1-.8-1.8-1.8-1.8h-4.8c-.4,0-.7.1-1,.3.2-.2.2-.5.3-.8,0,0,0,0,0,0,0,0,0,0,0,0h0v-4.8h0c0,0,0,0,0-.1,0,0,0,0,0,0,0-.3-.1-.6-.3-.8.3.2.6.3,1,.3h4.8c1,0,1.8-.8,1.8-1.8v-4.8c0-.3,0-.6-.2-.8.2.1.5.2.8.2,0,0,0,0,0,0,0,0,0,0,.1,0h4.8s0,0,0,0h0s0,0,.1,0c0,0,0,0,0,0,.3,0,.6-.1.8-.2-.1.2-.2.5-.2.8v4.8c0,1,.8,1.8,1.8,1.8h4.8c.4,0,.7-.1,1-.3-.2.2-.2.5-.3.8,0,0,0,0,0,0,0,0,0,0,0,0v4.8h0c0,0,0,0,0,.1,0,0,0,0,0,0,0,.3.1.6.3.8-.3-.2-.6-.3-1-.3Z"/>
    <rect class="st1" x="20.5" y="20.5" width="8.5" height="8.5" rx="2.5" ry="2.5"/>
    <rect class="st1" x="62.1" y="20.5" width="8.5" height="8.5" rx="2.5" ry="2.5"/>
    <rect class="st1" x="20.5" y="62.3" width="8.5" height="8.5" rx="2.5" ry="2.5"/>
    <rect class="st1" x="62.1" y="62.4" width="8.5" height="8.5" rx="2.5" ry="2.5"/>
  </g>
</svg>