<?xml version="1.0" encoding="UTF-8"?>
<svg id="Layer_1" xmlns="http://www.w3.org/2000/svg" version="1.1" viewBox="0 0 91.5 92.6">
  <!-- Generator: Adobe Illustrator 30.0.0, SVG Export Plug-In . SVG Version: 2.1.1 Build 123)  -->
  <defs>
    <style>
      .st0, .st1 {
        fill: #eef4cc;
      }

      .st2 {
        fill: #f56431;
      }

      .st3 {
        fill: #8dc63f;
      }

      .st1 {
        stroke: #161616;
        stroke-miterlimit: 10;
        stroke-width: .2px;
      }

      .st4 {
        fill: #004225;
      }
    </style>
  </defs>
  <rect class="st1" x="-.6" y="-.6" width="91.2" height="92.4"/>
  <g>
    <g>
      <rect class="st4" x="3.3" y="4.8" width="82.7" height="82"/>
      <g>
        <circle class="st0" cx="44.6" cy="46" r="5.7"/>
        <g>
          <path class="st2" d="M81.6,8.5v27.6c-4-3.6-6.6-8.8-6.6-14.6s.5-4.8,1.3-7c-2,.7-4.2,1.1-6.5,1.1-6.1,0-11.5-2.8-15-7.1h26.8Z"/>
          <path class="st2" d="M7.3,8.6h27.6c-3.6,4-8.8,6.6-14.6,6.6s-4.8-.5-7-1.3c.7,2,1.1,4.2,1.1,6.5,0,6.1-2.8,11.5-7.1,15V8.6Z"/>
          <path class="st2" d="M7.6,83.2v-27.6c4,3.6,6.6,8.8,6.6,14.6s-.5,4.8-1.3,7c2-.7,4.2-1.1,6.5-1.1,6.1,0,11.5,2.8,15,7.1H7.6Z"/>
          <path class="st2" d="M81.9,83.1h-27.6c3.6-4,8.8-6.6,14.6-6.6s4.8.5,7,1.3c-.7-2-1.1-4.2-1.1-6.5,0-6.1,2.8-11.5,7.1-15v26.8Z"/>
        </g>
      </g>
    </g>
    <g>
      <polygon class="st3" points="21.2 22.4 30.9 22.6 37.4 38.6 21 31.8 21.2 22.4"/>
      <polygon class="st3" points="44.3 12.6 51.3 19.4 44.9 35.5 37.8 19.4 44.3 12.6"/>
      <polygon class="st3" points="67.8 22.5 67.8 32.2 52 39.1 58.4 22.6 67.8 22.5"/>
      <polygon class="st3" points="68.3 69.4 58.6 69.2 52.1 53.2 68.5 60 68.3 69.4"/>
      <polygon class="st3" points="45.2 79.1 38.2 72.3 44.6 56.2 51.8 72.4 45.2 79.1"/>
      <polygon class="st3" points="21.8 69.2 21.7 59.5 37.5 52.6 31.1 69.2 21.8 69.2"/>
      <polygon class="st3" points="77.6 46.2 70.6 52.9 54.7 46.2 71 39.4 77.6 46.2"/>
      <polygon class="st3" points="11.7 46.4 18.6 39.5 34.6 46.1 18.3 53 11.7 46.4"/>
    </g>
  </g>
</svg>