<?xml version="1.0" encoding="UTF-8"?>
<svg id="Layer_1" xmlns="http://www.w3.org/2000/svg" version="1.1" viewBox="0 0 90.8 91">
  <!-- Generator: Adobe Illustrator 30.0.0, SVG Export Plug-In . SVG Version: 2.1.1 Build 123)  -->
  <defs>
    <style>
      .st0 {
        fill: #eef4cc;
      }

      .st1 {
        fill: #f56431;
      }

      .st2 {
        fill: #004225;
      }

      .st3 {
        fill: #e8dcea;
      }
    </style>
  </defs>
  <rect class="st2" width="90.8" height="91"/>
  <g>
    <rect class="st2" x="5.8" y="5.7" width="79.6" height="80"/>
    <path class="st0" d="M87.4,87.8H3.7V3.7h83.8v84.2ZM7.8,83.7h75.5V7.8H7.8v75.9Z"/>
  </g>
  <g>
    <circle class="st1" cx="46.4" cy="46.4" r="36.7"/>
    <path class="st0" d="M46.4,85.2c-21.4,0-38.7-17.4-38.7-38.7S25,7.7,46.4,7.7s38.7,17.4,38.7,38.7-17.4,38.7-38.7,38.7ZM46.4,11.8c-19.1,0-34.6,15.5-34.6,34.6s15.5,34.6,34.6,34.6,34.6-15.5,34.6-34.6S65.5,11.8,46.4,11.8Z"/>
  </g>
  <path class="st3" d="M53.6,46.2c47.1,0-7,54.1-7,7,0,47.1-54.1-7-7-7-47.1,0,7-54.1,7-7,0-47.1,54.1,7,7,7Z"/>
  <circle class="st2" cx="46.4" cy="46.4" r="4.9"/>
</svg>