<?xml version="1.0" encoding="UTF-8"?>
<svg id="Layer_1" xmlns="http://www.w3.org/2000/svg" version="1.1" viewBox="0 0 91.5 97.4">
  <!-- Generator: Adobe Illustrator 30.0.0, SVG Export Plug-In . SVG Version: 2.1.1 Build 123)  -->
  <defs>
    <style>
      .st0 {
        fill: #f56431;
      }

      .st1 {
        fill: #eef4cc;
        stroke: #161616;
        stroke-miterlimit: 10;
        stroke-width: .2px;
      }

      .st2 {
        fill: #004225;
      }

      .st3 {
        fill: #e8dcea;
      }
    </style>
  </defs>
  <rect class="st1" x=".1" y=".1" width="91.2" height="97.1"/>
  <path class="st2" d="M67.7,24c-11.5,18.8-11.5,24.6.2,43.3-18.8-11.5-24.6-11.5-43.3.2,11.5-18.8,11.5-24.6-.2-43.3,18.8,11.5,24.6,11.5,43.3-.2Z"/>
  <path class="st3" d="M67.5,44.4c-14.9,3.5-17.7,6.3-21.2,21.2-3.5-14.9-6.3-17.7-21.2-21.2,14.9-3.5,17.7-6.3,21.2-21.2,3.5,14.9,6.3,17.7,21.2,21.2Z"/>
  <path class="st3" d="M58.9,5.4s0,0,0,0c-.5.2-.9.4-1.4.6-6.4,2.9-8.6,7.3-11.1,17.6,0,.2,0,.3-.1.5,0-.2,0-.3-.1-.5-2.5-10.4-4.7-14.7-11.2-17.7-.3-.2-.7-.3-1.1-.4-.1,0-.2,0-.3-.1h25.3Z"/>
  <path class="st3" d="M67.5,89.1c-4.2,1-7.5,1.9-10,3.1h-22.4c-2.6-1.2-5.8-2.1-10-3.1,14.5-3.4,17.6-6.2,21-20.1,0-.3.2-.7.3-1.1,0,.4.2.7.3,1.1,3.4,14,6.5,16.7,21,20.1Z"/>
  <path class="st2" d="M85.9,24v41.1c0,.1,0,.2,0,.4-.3-1.2-.6-2.4-.9-3.5-3.1-11.5-6.5-14.3-19-17.3-.5-.1-.9-.2-1.4-.3.4,0,.7-.2,1.1-.3,9.6-2.4,13.9-4.5,16.7-10.4,1.3-2.6,2.2-5.9,3.2-10.2,0-.2,0-.3.1-.5,0,.3.2.7.2,1Z"/>
  <path class="st2" d="M27.3,44.4c-.3,0-.5.1-.7.2-12.6,3.1-16.2,5.8-19.3,16.7-.4,1.3-.7,2.7-1.1,4.2,0,0,0,.2,0,.3-.2-.9-.4-1.7-.6-2.5V25.2c.1-.4.2-.9.3-1.4,0-.2,0-.4.1-.5,1,4.1,1.9,7.3,3.1,9.9,2.9,6.4,7.2,8.6,17.2,11,.3,0,.7.2,1,.2Z"/>
  <g>
    <path class="st0" d="M86,5.4v32.1c-4.4-4.1-7.1-10.2-7.1-16.9s.5-5.6,1.4-8.2c-2.2.8-4.6,1.3-7,1.3-6.6,0-12.4-3.2-16.3-8.3h29.1Z"/>
    <path class="st0" d="M5.4,5.5h29.9c-3.9,4.7-9.5,7.6-15.8,7.6s-5.3-.5-7.6-1.5c.8,2.4,1.2,4.9,1.2,7.5,0,7-3,13.3-7.7,17.5V5.5Z"/>
    <path class="st0" d="M5.8,92.3v-32.1c4.4,4.1,7.1,10.2,7.1,16.9s-.5,5.6-1.4,8.2c2.2-.8,4.6-1.3,7-1.3,6.6,0,12.4,3.2,16.3,8.3H5.8Z"/>
    <path class="st0" d="M86.4,61v31.1h-29.9c0,0,.1-.1.2-.2,3.9-4.6,9.4-7.4,15.6-7.4s5.3.5,7.6,1.5c-.8-2.4-1.2-4.9-1.2-7.5,0-6.5,2.6-12.4,6.8-16.6.3-.3.6-.6,1-.9Z"/>
  </g>
</svg>