<?xml version="1.0" encoding="UTF-8"?>
<svg id="Layer_1" xmlns="http://www.w3.org/2000/svg" version="1.1" viewBox="0 0 158.5 158.7">
  <!-- Generator: Adobe Illustrator 30.0.0, SVG Export Plug-In . SVG Version: 2.1.1 Build 123)  -->
  <defs>
    <style>
      .st0 {
        fill: #f56431;
      }

      .st1 {
        fill: #8dc63f;
      }

      .st2 {
        fill: #004225;
      }
    </style>
  </defs>
  <g>
    <circle class="st2" cx="79.4" cy="79.6" r="12"/>
    <g>
      <path class="st0" d="M157.8,0v58.6c-8.6-7.6-14-18.6-14-31s1-10.3,2.8-14.9c-4.3,1.5-8.9,2.4-13.8,2.4-12.9,0-24.3-5.9-31.9-15.1h56.9Z"/>
      <path class="st0" d="M0,.2h58.6c-7.6,8.6-18.6,14-31,14s-10.3-1-14.9-2.8c1.5,4.3,2.4,8.9,2.4,13.8,0,12.9-5.9,24.3-15.1,31.9V.2Z"/>
      <path class="st0" d="M.7,158.7v-58.6c8.6,7.6,14,18.6,14,31s-1,10.3-2.8,14.9c4.3-1.5,8.9-2.4,13.8-2.4,12.9,0,24.3,5.9,31.9,15.1H.7Z"/>
      <path class="st0" d="M158.5,158.5h-58.6c7.6-8.6,18.6-14,31-14s10.3,1,14.9,2.8c-1.5-4.3-2.4-8.9-2.4-13.8,0-12.9,5.9-24.3,15.1-31.9v56.9Z"/>
    </g>
  </g>
  <g>
    <polygon class="st1" points="29.6 29.6 50.2 29.9 63.9 64 29.2 49.5 29.6 29.6"/>
    <polygon class="st1" points="78.7 8.8 93.5 23.3 80 57.4 64.7 23.1 78.7 8.8"/>
    <polygon class="st1" points="128.5 29.8 128.7 50.5 95 65.1 108.5 30 128.5 29.8"/>
    <polygon class="st1" points="129.7 129.3 109.1 128.9 95.3 94.9 130.1 109.3 129.7 129.3"/>
    <polygon class="st1" points="80.5 150 65.8 135.6 79.2 101.4 94.5 135.8 80.5 150"/>
    <polygon class="st1" points="30.8 129 30.6 108.4 64.3 93.8 50.7 128.9 30.8 129"/>
    <polygon class="st1" points="149.3 80 134.5 94.4 100.7 80.1 135.5 65.7 149.3 80"/>
    <polygon class="st1" points="9.5 80.4 24.2 65.9 58.1 79.9 23.5 94.6 9.5 80.4"/>
  </g>
</svg>