<?xml version="1.0"?>
<svg id="Layer_1" xmlns="http://www.w3.org/2000/svg" version="1.1" viewBox="0 0 82.8 28.8">
  
  <defs>
    
  </defs>
  <path class="st0" d="M2.9,11.9c-.1-.1-.2-.2-.3-.3-.8-.8-1.6-1.6-2.3-2.4-.1-.1-.2-.4-.2-.6,0-.5,0-1,0-1.6,1.3,1.3,2.5,2.5,3.8,3.8,0-.2,0-.4,0-.5,0-2.5,0-5.1,0-7.6,0-.3,0-.4.4-.5,1-.4,1.9-.9,2.9-1.3.2,0,.4-.2.7-.3v10.1s0,0,0,0c1.3-1.3,2.5-2.5,3.8-3.8,0,.7,0,1.3,0,1.9,0,.1-.1.2-.2.3-.8.8-1.6,1.6-2.4,2.4,0,0-.2.1-.3.2,0,0,0,.1.1.2h2.8v3.9h-2.9c.1.2.2.3.3.3.8.8,1.6,1.6,2.4,2.4.1.1.2.3.2.5,0,.5,0,1,0,1.6-1.3-1.3-2.5-2.6-3.8-3.8,0,0,0,0-.1,0v10.1c-.2,0-.3,0-.4-.1-1.2-.4-2.2-1-3.2-1.8-.2-.2-.3-.3-.3-.6,0-2.4,0-4.7,0-7.1v-.4s0,0,0,0c-1,1-2.1,2.1-3.2,3.2-.1-.5-.3-1-.4-1.4,0,0,0-.2.2-.3.7-.7,1.4-1.4,2.1-2.2,0,0,.2-.2.3-.3h-.5c-.7,0-1.4,0-2.2,0-.2,0-.3,0-.3-.3,0-1.1,0-2.2,0-3.3,0-.2.1-.3.3-.3.7,0,1.4,0,2.2,0,.1,0,.2,0,.4,0Z"></path>
  <path class="st0" d="M13.3,9.5c0-.2,0-.3,0-.4,0-2.9,0-5.8,0-8.7,0-.3.1-.4.4-.4,1.7,0,3.3.5,4.9,1.2.9.4,1.8.9,2.8,1.3,1.1.4,2.3.7,3.5.6,0,0,.1,0,.2,0,0,.1,0,.3,0,.4,0,2.5,0,5,0,7.4,0,.4-.1.4-.5.4-1.4,0-2.7-.2-4.1-.6-2.3-.7-4.7-1.3-7.2-1.3Z"></path>
  <path class="st0" d="M24.7,19c-.3,1.1-.7,2.1-1.2,3-1.3,2.3-3.3,3.9-5.8,4.9-1.4.6-2.7,1.2-4.1,1.9,0,0-.2,0-.3.1v-11c.3,0,.7,0,1,0,1.5,0,3,.3,4.4.6,1.8.4,3.7.6,5.6.6.1,0,.2,0,.4,0Z"></path>
  <path class="st0" d="M11.7,28.8c-.8-.4-1.6-.8-2.4-1.2,0,0-.2-.2-.2-.3,0-2.4,0-4.9,0-7.4.1,0,.2.1.2.2.7.7,1.5,1.5,2.2,2.2,0,0,.2.3.2.4,0,2,0,3.9,0,5.9,0,0,0,0,0,.2Z"></path>
  <path class="st0" d="M9.1,7.7v-1c0-2,0-4,0-6,0-.3,0-.4.4-.4.6,0,1.3-.1,1.9-.2.2,0,.3,0,.3.3,0,1.5,0,3,0,4.5,0,.1,0,.3-.1.4-.8.8-1.6,1.6-2.3,2.3,0,0,0,0-.1,0Z"></path>
  <path class="st0" d="M62,10.9v-1.6c0-.3-.2-.4-.5-.4,0,0-.2-.1-.2-.2,0,0,.2-.1.3-.1.6,0,1.1,0,1.7,0,0,0,.2,0,.3.2,0,0-.2.1-.2.2-.4,0-.5.1-.5.6,0,1.2,0,2.4,0,3.6,0,.5,0,.5.5.6,0,0,.2.1.2.2,0,0-.2.1-.2.1-.7,0-1.3,0-2,0-.1-.2,0-.3.2-.3.5,0,.5-.1.5-.6,0-.6,0-1.1,0-1.7h-2.8c0,.7,0,1.3,0,2,0,.3.3.3.5.4,0,0,.2.1.2.2,0,0-.2.1-.3.1-.6,0-1.2,0-1.7,0,0,0-.1,0-.2-.1,0,0,.1-.2.2-.2.5-.1.5-.1.5-.6,0-1.2,0-2.4,0-3.6,0-.5,0-.5-.5-.6,0,0-.1-.1-.2-.2,0,0,.1-.1.2-.2.6,0,1.2,0,1.7,0,0,0,.2,0,.2.1,0,0-.1.2-.2.2-.4,0-.5.3-.5.6,0,.4,0,.8,0,1.2,0,0,.1.2.2.2.9,0,1.7,0,2.6,0Z"></path>
  <path class="st0" d="M40.8,20.6c0-.1,0-.2,0-.2,0-.9,0-1.9,0-2.8,0-.5,0-.6-.6-.7,0,0-.1-.1-.2-.2,0,0,.1-.1.2-.1.5,0,1.1,0,1.6,0,0,0,.1,0,.2.1,0,0-.1.2-.2.2-.4,0-.5.3-.5.7,0,1.4,0,2.7,0,4.1v.4s0,0-.1,0c-.1,0-.3-.2-.4-.3-1-1.2-2-2.5-3-3.7,0,0-.2-.2-.3-.3,0,0,0,.1,0,.2,0,1,0,2,0,3,0,.5.1.6.6.7.1,0,.2.1.3.2,0,0,0,0,0,.1-.6,0-1.3,0-1.9,0,0,0-.1,0-.1-.1s0-.1.1-.2c.6-.2.6-.2.6-.9,0-1,0-2.1,0-3.1s-.2-.7-.7-.9c0,0-.1-.1-.2-.2,0,0,.2,0,.2-.1,0,0,0,0,0,0,1,0,1,0,1.6.7.9,1,1.7,2.1,2.6,3.1,0,0,.1.1.2.3Z"></path>
  <path class="st0" d="M32.5,11c.1,0,.3,0,.4.1.5.2.8.5.9,1,0,.6-.1,1-.6,1.3-.5.3-1,.4-1.6.5-.6,0-1.2,0-1.9,0,0,0-.2,0-.3-.1,0,0,.1-.2.2-.2.5,0,.5-.1.5-.6,0-1.2,0-2.4,0-3.6,0-.5,0-.5-.5-.6,0,0-.1,0-.2-.1,0,0,.1-.2.2-.2.8,0,1.7,0,2.5,0,.7,0,1.1.4,1.2.9.1.6,0,1-.7,1.4,0,0,0,0-.2.1ZM31,11.2c0,.1,0,.2,0,.2,0,.5,0,1,0,1.4,0,.7.2.9.9.8.1,0,.2,0,.3,0,.4-.2.7-.5.7-1.1s-.2-.9-.7-1c-.4-.1-.8-.1-1.2-.2ZM31,9.9v.3c0,.7,0,.7.8.6.5,0,.8-.3.9-.7.1-.8-.4-1.3-1.2-1.3-.3,0-.5.1-.5.5,0,.2,0,.4,0,.6Z"></path>
  <path class="st0" d="M36.4,11.7c0,.5,0,1,0,1.5,0,.3.2.5.5.5.2,0,.3,0,.2.3-.7,0-1.4,0-2,0,0,0-.2-.1-.1-.1,0,0,0-.2.2-.2.6-.2.6-.2.6-.8,0-1.1,0-2.3,0-3.4,0-.5,0-.5-.5-.7,0,0-.1,0-.2-.1,0,0,.1-.2.2-.2.8,0,1.6,0,2.4,0,.7,0,1.2.4,1.3,1,.2.7,0,1.3-.7,1.7,0,0-.2.1-.3.2.6.8,1,1.8,1.9,2.3,0,0,0,.2.1.2,0,0-.2,0-.2,0-.6,0-1-.2-1.4-.7-.3-.4-.6-.8-.8-1.3-.2-.4-.6-.6-1.1-.5ZM36.4,10.1s0,0,0,0c0,.3,0,.6,0,.8,0,.2,0,.3.3.3,0,0,.2,0,.3,0,.8,0,1.2-.6,1.1-1.4,0-.7-.7-1.1-1.4-1-.2,0-.3.1-.3.4,0,.3,0,.6,0,.9Z"></path>
  <path class="st0" d="M61.3,19.4c.6.8,1,1.8,1.9,2.3,0,0,.1.2.2.3-.7,0-1.3-.1-1.7-.7-.3-.4-.6-.8-.8-1.3-.2-.4-.6-.5-1-.4,0,.6,0,1.1,0,1.7,0,.1.3.2.4.3,0,0,.2.1.2.2,0,0-.2.1-.3.1-.6,0-1.1,0-1.7,0,0,0-.2,0-.3-.1,0,0,.2-.2.2-.2.4,0,.5-.2.5-.6,0-1.2,0-2.4,0-3.7,0-.3-.1-.6-.5-.6,0,0-.2-.1-.2-.2,0,0,.2-.1.3-.1.8,0,1.6,0,2.3,0,.8,0,1.2.4,1.4,1,.2.7,0,1.3-.7,1.7,0,0-.2,0-.3.2ZM59.8,19.3c.2,0,.4,0,.6,0,.7,0,1.2-.7,1.1-1.4-.1-.7-.7-1.1-1.5-1-.1,0-.2.2-.3.3,0,.7,0,1.4,0,2.1Z"></path>
  <path class="st0" d="M57.3,20.7c0,.4-.2.9-.3,1.3h-4q0-.3.2-.3c.5,0,.6-.1.6-.7,0-1.2,0-2.3,0-3.5,0-.5,0-.5-.5-.7,0,0-.1-.1-.2-.2,0,0,.1-.1.2-.1,1.2,0,2.3,0,3.6,0,0,.4,0,.8,0,1.1,0,0,0,.2-.1.2,0,0-.2,0-.2-.1-.1-.8-.6-.8-1.3-.8-.8,0-.8,0-.8.8s0,.7,0,1c0,.3,0,.3.3.3.2,0,.4,0,.6,0,.4,0,.7,0,.7-.5,0,0,.1-.1.2-.1,0,0,.1.1.1.2,0,.4,0,.9,0,1.3,0,0,0,.2-.1.2,0,0-.2,0-.2-.1,0-.4-.4-.5-.7-.5-.9,0-.9,0-.9.9s0,.6,0,.9c0,.3.1.5.5.5.4,0,.8,0,1.1,0,.5,0,.6-.4.8-.8,0-.2.2-.3.4-.1Z"></path>
  <path class="st0" d="M2.6,2.9v4.8c0,0-.1,0-.2-.1-.8-.7-1.5-1.5-2.2-2.2,0,0-.2-.2-.2-.3,0-.6,0-1.3,0-1.9.9,0,1.7-.2,2.6-.2Z"></path>
  <path class="st0" d="M30.2,18.7c0-.4,0-.9,0-1.3,0-.3-.1-.6-.5-.6,0,0-.2-.1-.3-.2,0,0,.2-.2.3-.2.5,0,1.1,0,1.6,0,0,0,.2,0,.3.2,0,0-.2.2-.2.2-.4,0-.5.2-.5.6,0,.8,0,1.6,0,2.4,0,.2,0,.4.1.7.2.8.7,1.1,1.5,1.1.7,0,1.3-.4,1.4-1.2.1-.8.1-1.6.1-2.5,0-.1,0-.3,0-.4,0-.6,0-.6-.6-.7,0,0-.1-.1-.2-.2,0,0,.1-.1.2-.1.5,0,1.1,0,1.6,0,0,0,.1,0,.2.1,0,0-.1.2-.2.2-.5.2-.5.2-.6.7,0,.9,0,1.7,0,2.6-.2,1.5-1.4,2.3-2.8,1.9-.8-.2-1.3-.8-1.4-1.8,0-.5,0-1,0-1.5,0,0,0,0,0,0Z"></path>
  <path class="st0" d="M37.1,5.4c.2-.1.3-.2.6-.4,0,.2,0,.3,0,.4-.3.2-.5.5-.8.6-.4.2-.6,0-.5-.4.1-.7.3-1.3.4-2,0-.3.1-.6.2-.9-.2,0-.3,0-.4.1-.8.5-1.5,1.1-1.7,2.1,0,.2,0,.3,0,.4q-.1.5-.8.7c0-.1,0-.2,0-.3.3-1.5.6-3.1,1-4.6q.1-.6-.5-.6c0,0,0-.2.1-.2.4-.1.8-.2,1.3-.3-.3,1.2-.5,2.3-.7,3.5,0,0,0,0,.1.1,0-.1.2-.3.3-.4.4-.3.8-.6,1.3-.9.4-.2.7,0,.6.4,0,.6-.2,1.1-.3,1.7,0,.3-.1.6-.2.9,0,0,0,0,0,0Z"></path>
  <path class="st0" d="M49.3,20.7c0-.2.1-.3.2-.5.4-.9.7-1.9,1.1-2.8.2-.4.1-.5-.3-.6,0,0-.2-.1-.2-.2,0,0,.2-.1.3-.1.5,0,1,0,1.4,0,0,0,.2,0,.3.2,0,0-.1.2-.2.2-.4,0-.6.4-.7.7-.6,1.4-1.1,2.8-1.7,4.2,0,.1-.2.2-.3.4-.1-.1-.2-.2-.3-.4-.5-1.4-1.1-2.8-1.6-4.2-.1-.3-.3-.6-.7-.7,0,0-.1-.1-.2-.2,0,0,.1-.1.2-.1.5,0,1.1,0,1.6,0,0,0,.1,0,.2.1,0,0-.1.2-.2.2-.4,0-.4.2-.3.5.4,1.1.9,2.3,1.3,3.4,0,0,0,0,0,0Z"></path>
  <path class="st0" d="M79.7,16.5c.1.5-.3.3-.5.5.4.6.8,1.3,1.2,2.1.2-.4.4-.8.6-1.1.1-.2.2-.5.4-.7.1-.2,0-.4-.2-.4-.2,0-.4,0-.2-.3.5,0,1.1,0,1.7,0,0,0,.1,0,.2.1,0,0-.1.2-.2.2-.4,0-.7.3-.9.7-.1.3-.3.5-.5.7-.6.8-.8,1.8-.7,2.8,0,.5,0,.6.6.6,0,0,0,0,0,0,0,0,.1.1.2.2,0,0-.1.1-.2.1-.7,0-1.3,0-2,0,0,0-.2,0-.2-.1,0,0,.1-.2.2-.2.6-.1.6-.1.6-.7,0-.9,0-1.7-.6-2.4-.3-.4-.5-.8-.7-1.2-.2-.3-.3-.5-.7-.5,0,0-.1-.1-.2-.2,0,0,.1-.1.2-.1.6,0,1.2,0,1.8,0Z"></path>
  <path class="st0" d="M46,8.9c-.4,0-.8,0-1.2,0-.3,0-.4.4-.4.6,0,.2,0,.4-.4.2,0-.5,0-1,.1-1.5,1.2.4,2.4.1,3.6.2.3,0,.6,0,.8-.2,0,0,.1,0,.2,0,0,.5,0,.9,0,1.4,0,0,0,.2-.1.2,0,0-.1,0-.2-.1,0,0,0-.1,0-.2-.2-.6-.3-.6-.9-.7q-.8,0-.8.7v3.3c0,.6,0,.6.6.7,0,0,.2.1.2.2,0,0-.2.1-.2.1-.7,0-1.3,0-2,0,0,0-.2,0-.2-.1,0,0,.1-.2.2-.2.6-.1.6-.2.6-.7,0-1.2,0-2.5,0-3.7,0,0,0-.2,0-.4Z"></path>
  <path class="st0" d="M64.4,20.4c.1.2.2.4.3.7.2.4.6.7,1.1.7.4,0,.7-.2.9-.5.2-.4.1-.8-.2-1.1-.2-.2-.5-.4-.8-.6-.3-.2-.6-.3-.8-.5-.5-.4-.7-.9-.6-1.4.1-.6.5-.9,1-1.1.5-.2,1-.1,1.5,0,0,0,.2.1.2.2,0,.4.1.7.2,1-.2.1-.3,0-.4-.1-.1-.3-.3-.6-.5-.8-.3-.3-.9-.1-1.1.2-.3.3-.2.9,0,1.2.2.2.5.3.7.5.3.2.6.3.9.5.9.7.8,2.1-.3,2.6-.7.3-1.4.3-2.1,0,0,0-.2-.2-.2-.3,0-.3-.1-.6-.2-.9,0-.2,0-.2.3-.3Z"></path>
  <path class="st0" d="M53.5,12.4c.1.3.2.6.4.8.2.4.6.6,1,.6.4,0,.8-.2.9-.5.2-.4.1-.8-.2-1.1-.3-.2-.6-.4-.9-.6-.3-.2-.6-.3-.8-.6-.8-.7-.6-1.9.4-2.4.6-.3,1.2-.2,1.8,0,0,0,.2.1.2.2,0,.3,0,.6.1,1-.2.1-.3.1-.4-.1-.1-.4-.3-.7-.6-.8-.4-.1-.9,0-1.1.3-.2.3-.2.9,0,1.2.2.2.5.4.7.5.2.2.5.3.8.4.6.4.9,1,.8,1.6-.1.6-.7,1.1-1.4,1.3-.1,0-.3,0-.4,0-1.1,0-1.5-.4-1.5-1.5,0,0,.1-.2.2-.3Z"></path>
  <path class="st0" d="M73,21.8c0,0,.2-.2.3-.2.5,0,.6-.1.6-.7,0-1.3,0-2.5,0-3.8,0-.2,0-.4-.3-.3-.1,0-.2,0-.3,0-.7,0-.8,0-1,.7,0,.1-.2.2-.2.3,0,0,0,0-.1,0,0-.5,0-.9,0-1.4,0,0,.2-.1.2,0,.2,0,.4.1.6.1,1,0,1.9,0,2.9,0,.3,0,.5-.1.8-.2,0,.5,0,1,.1,1.6-.2-.1-.3-.2-.3-.2-.2-.9-.5-.8-1.3-.8h-.4c0,.1,0,.3,0,.4,0,1.2,0,2.4,0,3.7,0,.6,0,.7.6.8,0,0,.2.1.2.2,0,0-.1.2-.2.2-.7,0-1.5,0-2.2,0,0,0,0-.1,0-.2Z"></path>
  <path class="st0" d="M32.2,5.8c0,0-.2.2-.3.2-.7,0-1.4,0-2.1,0,0,0,0,0,0-.1,0,0,.2-.2.3-.2.4,0,.6-.2.6-.6.2-1.3.5-2.6.7-3.9,0-.1,0-.2,0-.4-.4,0-.8,0-1.1.1-.2.1-.4.5-.6.7,0,.1-.2.2-.3.3,0,0,0,0-.1,0,.1-.5.2-.9.4-1.4,0,0,.2,0,.3,0,.2,0,.3.1.4.1,1,0,1.9,0,2.9,0,.2,0,.5-.1.8-.2,0,.5-.1,1-.2,1.4,0,0-.2.1-.3.2,0,0,0,0,0-.1,0-.8-.5-1.1-1.3-.9,0,0-.1.1-.2.2-.3,1.4-.5,2.7-.8,4.1,0,.3,0,.5.4.5,0,0,.2,0,.3,0,0,0,0,0,0,.1Z"></path>
  <path class="st0" d="M35.4,28.8c-.3,0-.5,0-.7,0-.1,0-.2-.1-.3-.2-.5-.9-1-1.8-1.4-2.7,0-.1-.1-.2-.2-.3v3.2h-.7c.2-1.4.2-2.7,0-4.1.2,0,.5,0,.8,0,0,0,.2.1.2.3.5.9,1,1.8,1.4,2.7,0,.1.1.2.2.3v-3.3h.6c0,1.4,0,2.7,0,4.1Z"></path>
  <path class="st0" d="M46.1,25.6c-.4-.6-.9-.6-1.5-.5,0,0-.2,0-.3,0-.7.3-1,1.4-.7,2.3.2.8.9.9,1.7.9,0,0,.2-.2.2-.3,0-.4,0-.8,0-1.3h.8c0,.5,0,1,0,1.5,0,.2,0,.3-.3.3-.5,0-1.1,0-1.6,0-1-.2-1.5-1.1-1.3-2.3.1-1.1.7-1.7,1.9-1.8.2,0,.4,0,.6,0,.9.1.8,0,.7,1Z"></path>
  <path class="st0" d="M68.5,21.9c0,0,.2-.2.3-.2.5,0,.5-.1.5-.6,0-1.2,0-2.4,0-3.6,0-.5,0-.5-.5-.6,0,0-.2-.1-.2-.2,0,0,.2-.1.3-.1.6,0,1.2,0,1.7,0,0,0,.2.1.2.2,0,0-.1.1-.2.2-.5.1-.5.2-.5.6,0,1.2,0,2.4,0,3.6,0,.5,0,.5.5.6,0,0,.1.1.2.2,0,0-.1.1-.2.1-.7,0-1.3,0-2,0,0,0,0,0,0-.1Z"></path>
  <path class="st0" d="M41.7,14c-.3,0-.6,0-.9,0,0,0-.1,0-.2-.1,0,0,.1-.2.2-.2.5,0,.6-.2.6-.7,0-1.1,0-2.3,0-3.4s0-.6-.6-.7c0,0-.1-.1-.2-.2,0,0,.1-.2.2-.2.6,0,1.2,0,1.8,0,0,0,.1,0,.2.1,0,0-.1.1-.2.2-.5.1-.5.1-.5.6,0,1.2,0,2.4,0,3.6,0,.5,0,.5.5.6,0,0,.1.1.2.2,0,0-.2,0-.2.1,0,0,0,0,0,0-.3,0-.6,0-.9,0Z"></path>
  <path class="st0" d="M45.3,22h-2.2c0-.2,0-.3.2-.3.5,0,.5-.1.5-.6,0-1.2,0-2.4,0-3.6,0-.5,0-.5-.5-.6,0,0-.2-.1-.2-.2,0,0,.2-.1.3-.1.6,0,1.2,0,1.7,0,0,0,.2,0,.2.1,0,0-.1.2-.2.2-.5.1-.5.1-.5.6,0,1.2,0,2.4,0,3.6,0,.5,0,.5.5.6,0,0,.2.1.3.2,0,0,0,0,0,0Z"></path>
  <path class="st0" d="M39.8,26.6c.5,0,1-.1,1.4-.2v.7c-.4,0-.8,0-1.2-.1-.2,0-.3,0-.2.2,0,.1,0,.3,0,.4,0,.3,0,.5.1.8.5,0,1,.1,1.4-.2,0,0,0-.1.1-.2,0,0,0,0,.1,0,0,.2,0,.4,0,.6,0,0-.1.2-.2.2-.7,0-1.5,0-2.2,0,0-.7,0-1.4,0-2.1s0-1.4,0-2h2.3v.5c-.4,0-.9,0-1.3-.1,0,0-.2.1-.2.2,0,.4,0,.8,0,1.3Z"></path>
  <path class="st0" d="M49.8,13.9c0,0,.2-.2.3-.2.4,0,.5-.2.5-.6,0-1.2,0-2.4,0-3.7,0-.4-.2-.6-.5-.6,0,0-.2-.1-.3-.2,0,0,0,0,0-.1.7,0,1.4,0,2.1,0,0,0,.1,0,.2.1,0,0,0,.2-.2.2-.6.2-.6.1-.6.7,0,1.1,0,2.3,0,3.4s0,.7.6.7c0,0,.1.1.2.2,0,0-.1.1-.2.1-.7,0-1.3,0-2,0,0,0,0,0,0-.1Z"></path>
  <path class="st0" d="M51.7,24.7c.5,0,1,0,1.5,0,.7,0,1.1.5,1.1,1.1,0,.7-.3,1.2-1,1.3-.3,0-.5,0-.9,0,0,.5,0,1.1.1,1.6h-.8c.2-1.4.2-2.7,0-4.1ZM52.5,26.7c.4,0,.8,0,1-.3.2-.3.2-.8,0-1.1-.2-.3-.6-.3-1-.2v1.6Z"></path>
  <path class="st0" d="M40.9,5c0,.1,0,.3,0,.3-.4.4-.8.7-1.3.8-.7.2-1.2-.2-1.3-.9-.2-1.1.4-2.3,1.4-2.8.2,0,.4-.2.6-.2.4,0,.7,0,.8.4.2.3,0,.6-.2.9-.2.2-.5.4-.8.5-.3.1-.5.2-.8.3-.4.1-.5.3-.4.7.1.4.4.6.7.5.4-.1.7-.3,1.2-.6ZM39.1,4s0,0,0,.1c.4-.2.8-.4,1.2-.6.3-.2.3-.5.1-.7-.2-.2-.5-.1-.7,0-.4.3-.6.7-.7,1.2Z"></path>
  <path class="st0" d="M47.3,24.7h1c-.1.7.4,1.1.7,1.7.3-.6.8-1,.6-1.7h.9c-.3.5-.5,1-.9,1.5-.6.8-.5,1.7-.3,2.6h-.9c0-.2,0-.4.1-.6.1-.7,0-1.3-.4-2-.3-.5-.6-1-.9-1.6Z"></path>
  <path class="st0" d="M57.3,28.8h-.8c.2-1.2.1-2.3.1-3.5,0-.2,0-.3-.3-.3-.3,0-.6.1-.9.2v-.6h3v.6c-.4,0-.7-.1-1.1-.2v3.8Z"></path>
  <path class="st0" d="M30.4,28.8h-.8c.2-1.4.2-2.7,0-4.1h.8c-.1,1.4-.2,2.7,0,4.1Z"></path>
  <path class="st0" d="M2.5,23.3c-.4-.6-.8-1.3-1.2-1.9,0,0,0-.2,0-.2.4-.4.8-.8,1.3-1.3v3.4s0,0-.1,0Z"></path>
</svg>