<?xml version="1.0"?>
<svg id="Layer_1" xmlns="http://www.w3.org/2000/svg" version="1.1" viewBox="0 0 62.4 25">
  
  <defs>
    
  </defs>
  <path class="st0" d="M19.7,25c0,0-.1,0-.2,0-1.8,0-3.7,0-5.5,0q-.2,0-.2-.2v-1.4c0-.1,0-.2.2-.2h17.1s0,0,0,0c-.2.2-.5.4-.7.5-.9.6-1.8,1-2.9,1.1-.2,0-.3,0-.5,0h-7.4Z"></path>
  <path class="st0" d="M0,3.3c0,0,.1,0,.2,0h11.7c.1,0,.2,0,.2.2v1.4c0,.1,0,.2-.2.2H.2c0,0-.1,0-.2,0v-1.7h0Z"></path>
  <path class="st0" d="M0,23.3c0,0,.1,0,.2,0h11.7c.1,0,.2,0,.2.2,0,.5,0,1,0,1.5H0v-1.7Z"></path>
  <path class="st0" d="M0,0c0,0,.1,0,.2,0h11.8c.1,0,.2,0,.2.2v1.4c0,.1,0,.2-.2.2H.2C.1,1.7,0,1.7,0,1.7V0Z"></path>
  <path class="st0" d="M0,20h11.9c.1,0,.2,0,.2.2v1.3c0,.1,0,.2-.2.2H.2c0,0-.1,0-.2,0v-1.7Z"></path>
  <path class="st0" d="M53.7,25c0-.5,0-1,0-1.6,0-.1,0-.2.2-.2h8.3c.1,0,.2,0,.2.2v1.4s0,0,0,.1h-8.7,0Z"></path>
  <path class="st0" d="M34.7,25c0-.5,0-1,0-1.6,0-.1,0-.2.2-.2h8.3c.1,0,.2,0,.2.2,0,.5,0,1,0,1.6h-8.6,0Z"></path>
  <path class="st0" d="M43.3,10.1s0,0,0,.1c0,.4,0,.9,0,1.3,0,.1,0,.1-.1.1-1.6,0-3.3,0-4.9,0,0,0-.1,0-.1-.1,0-.5,0-1,0-1.4,0,0,0-.1.1-.1,3.2,0,6.4,0,9.6,0s.1,0,.1.1c.1.4.3.8.4,1.1,0,0,0,0,0,.2,0,0,0-.1,0-.2.1-.4.3-.7.4-1.1,0,0,0-.1.2-.1,3.2,0,6.4,0,9.6,0,.1,0,.2,0,.1.2,0,.5,0,1,0,1.4,0,.1,0,.1-.1.1-1.6,0-3.3,0-4.9,0-.1,0-.1,0-.1-.1,0-.4,0-.9,0-1.3s0,0,0-.1c0,0,0,0,0,0,0,0,0,0,0,.1-.2.4-.3.9-.5,1.3,0,0,0,.1-.2.1-3,0-6,0-9,0,0,0-.1,0-.2-.1-.1-.4-.3-.9-.5-1.3,0,0,0,0,0-.1,0,0,0,0,0,0h0Z"></path>
  <path class="st0" d="M33.2,5.1H14c-.1,0-.2,0-.2-.2,0-.5,0-.9,0-1.4,0-.1,0-.2.2-.2,3.4,0,6.7,0,10.1,0s5.5,0,8.2,0c.1,0,.2,0,.3.2.2.5.4,1,.6,1.6h0Z"></path>
  <path class="st0" d="M33.2,20c-.1.4-.3.7-.4,1.1,0,.2-.2.3-.2.5,0,0,0,0-.2,0,0,0,0,0,0,0H14.1s0,0-.1,0,0,0,0,0c0-.5,0-1,0-1.5,0,0,0,0,0,0,0,0,0,0,.1,0h19.1s0,0,0,0Z"></path>
  <path class="st0" d="M31.2,1.7H14.1s0,0-.1,0c0,0,0,0,0,0,0-.5,0-1,0-1.5,0,0,0,0,0,0,0,0,0,0,0,0C18.3,0,22.5,0,26.7,0c1.6,0,3.1.5,4.4,1.6,0,0,0,0,0,0,0,0,0,0,0,0h0Z"></path>
  <path class="st0" d="M32.5,10c-.2.3-.4.6-.6.9-.2.3-.5.5-.7.7,0,0-.1,0-.2,0-4.5,0-9,0-13.5,0-.1,0-.1,0-.1-.1,0-.5,0-1,0-1.4,0-.1,0-.2.2-.1,1.8,0,3.5,0,5.3,0h9.7s0,0,0,0Z"></path>
  <path class="st0" d="M32.5,15h-14.9c-.1,0-.2,0-.2-.2v-1.4q0-.2.2-.2h13.4c.1,0,.2,0,.3.1.5.4.9.9,1.2,1.5,0,0,0,0,0,.1h0Z"></path>
  <path class="st0" d="M50.7,5c0-.1,0-.3.1-.4.1-.4.3-.8.4-1.2,0,0,0-.1.2-.1h10.8c.1,0,.1,0,.1.1,0,.5,0,1,0,1.4,0,.1,0,.1-.1.1-3.8,0-7.6,0-11.4,0s0,0-.1,0h0Z"></path>
  <path class="st0" d="M46.3,5.1h-11.4c-.1,0-.2,0-.2-.2v-1.4c0,0,0-.1.1-.1h10.8c0,0,.1,0,.1,0,.2.5.4,1,.5,1.5,0,0,0,0,0,0h0Z"></path>
  <path class="st0" d="M51.9,1.7c0,0,0-.1,0-.2.2-.5.3-.9.5-1.4,0,0,0-.1.2-.1,3.2,0,6.4,0,9.6,0,.1,0,.1,0,.1.2,0,.5,0,.9,0,1.4,0,.1,0,.1-.2.1-2.8,0-5.7,0-8.5,0h-1.8,0Z"></path>
  <path class="st0" d="M45.1,1.7h-10.3c-.1,0-.2,0-.2-.2,0-.5,0-.9,0-1.4,0-.1,0-.1.1-.1C38,0,41.2,0,44.4,0s.1,0,.1,0c.2.5.4,1,.5,1.6,0,0,0,0,0,0h0Z"></path>
  <path class="st0" d="M47.4,8.4h-9.1c-.1,0-.2,0-.2-.2,0-.5,0-.9,0-1.4,0-.1,0-.1.1-.1,2.8,0,5.6,0,8.5,0,0,0,.1,0,.2.1.2.5.3,1,.5,1.5,0,0,0,0,0,.1h0Z"></path>
  <path class="st0" d="M49.6,8.4c0,0,0,0,0-.1.2-.5.3-1,.5-1.5,0,0,0-.1.2-.1h8.5c.1,0,.1,0,.1.1,0,.5,0,1,0,1.4,0,.1,0,.1-.1.1-3,0-6,0-9.1,0h-.1,0Z"></path>
  <path class="st0" d="M58.1,21.7h-4.2c-.1,0-.2,0-.2-.2,0-.5,0-.9,0-1.4,0-.1,0-.1.1-.1h8.4c.1,0,.1,0,.1.1,0,.5,0,.9,0,1.4,0,.1,0,.2-.2.2-1.4,0-2.8,0-4.2,0h0Z"></path>
  <path class="st0" d="M39,21.7h-4.1c-.1,0-.2,0-.2-.2,0-.5,0-.9,0-1.4,0-.1,0-.1.1-.1h8.3c.1,0,.1,0,.1.1,0,.5,0,.9,0,1.4,0,.1,0,.1-.1.1-1.4,0-2.8,0-4.2,0h0Z"></path>
  <path class="st0" d="M52.6,13.3c0,0,0,.1,0,.2-.2.5-.3.9-.5,1.4,0,0,0,.1-.2.1h-6.7c0,0-.1,0-.2,0-.2-.5-.3-1-.5-1.5,0,0,0,0,0,0h8.1Z"></path>
  <path class="st0" d="M30.6,6.7h2.7c.1,0,.1,0,.1.1,0,.5,0,1-.2,1.5,0,0,0,.1-.1.1-1.7,0-3.4,0-5.2,0-.1,0-.1,0-.1-.1,0-.5,0-1,0-1.4,0-.1,0-.1.1-.1.9,0,1.8,0,2.7,0h0Z"></path>
  <path class="st0" d="M30.6,18.3c-.9,0-1.8,0-2.7,0-.1,0-.2,0-.2-.1,0-.5,0-1,0-1.4,0,0,0-.1.1-.1,1.7,0,3.5,0,5.2,0,0,0,.1,0,.1,0,.1.5.2,1,.2,1.5,0,.1,0,.1-.1.1-.9,0-1.8,0-2.7,0h0Z"></path>
  <path class="st0" d="M45.6,16.6h5.8s0,0,0,.1c-.2.5-.4,1-.5,1.5,0,0,0,.1-.1.1h-4.4c0,0-.1,0-.1,0-.2-.5-.4-1-.5-1.6,0,0,0,0,0,0h0Z"></path>
  <path class="st0" d="M6.1,6.7h2.4c.1,0,.2,0,.2.1,0,.5,0,1,0,1.4,0,.1,0,.1-.1.1-1.6,0-3.3,0-4.9,0-.1,0-.1,0-.1-.1,0-.5,0-1,0-1.4,0-.1,0-.1.1-.1.8,0,1.6,0,2.4,0h0Z"></path>
  <path class="st0" d="M19.9,8.4h-2.4c-.1,0-.2,0-.2-.1,0-.5,0-1,0-1.4,0-.1,0-.1.1-.1,1.6,0,3.3,0,4.9,0,0,0,.1,0,.1.1,0,.5,0,1,0,1.4,0,.1,0,.1-.1.1-.8,0-1.6,0-2.4,0h0Z"></path>
  <path class="st0" d="M6.1,11.7c-.8,0-1.6,0-2.4,0-.1,0-.2,0-.2-.2,0-.5,0-.9,0-1.4,0-.1,0-.1.1-.1,1.6,0,3.3,0,4.9,0,.1,0,.1,0,.1.1,0,.5,0,1,0,1.4,0,.1,0,.1-.1.1-.8,0-1.6,0-2.4,0h0Z"></path>
  <path class="st0" d="M6.1,16.6h2.4c.1,0,.1,0,.1.1,0,.5,0,1,0,1.4,0,.1,0,.1-.1.1-1.6,0-3.3,0-4.9,0,0,0-.1,0-.1-.1,0-.5,0-1,0-1.5,0,0,0-.1.1-.1.8,0,1.6,0,2.5,0h0Z"></path>
  <path class="st0" d="M19.9,18.3h-2.4c-.1,0-.1,0-.1-.1,0-.5,0-1,0-1.4,0-.1,0-.1.1-.1,1.6,0,3.3,0,4.9,0,.1,0,.1,0,.1.1,0,.5,0,1,0,1.4,0,.1,0,.1-.1.1-.8,0-1.6,0-2.5,0h0Z"></path>
  <path class="st0" d="M40.7,18.3c-.8,0-1.6,0-2.4,0-.1,0-.1,0-.1-.1,0-.5,0-1,0-1.4,0-.1,0-.1.1-.1,1.6,0,3.2,0,4.9,0,.1,0,.1,0,.1.1,0,.5,0,1,0,1.4,0,.1,0,.1-.1.1-.8,0-1.6,0-2.4,0h0Z"></path>
  <path class="st0" d="M56.3,16.6c.8,0,1.6,0,2.4,0,.1,0,.2,0,.2.2,0,.5,0,1,0,1.4,0,.1,0,.1-.1.1-1.6,0-3.3,0-4.9,0-.1,0-.1,0-.1-.1,0-.5,0-1,0-1.4,0-.1,0-.1.1-.1.8,0,1.6,0,2.4,0h0Z"></path>
  <path class="st0" d="M6,15h-2.4c-.1,0-.2,0-.2-.1,0-.5,0-1,0-1.4,0,0,0-.1.1-.1h4.9c0,0,.1,0,.1.1,0,.5,0,1,0,1.4,0,.1,0,.1-.1.1-.8,0-1.6,0-2.5,0h0Z"></path>
  <path class="st0" d="M40.7,15c-.8,0-1.6,0-2.4,0-.1,0-.2,0-.2-.2,0-.5,0-.9,0-1.4,0-.1,0-.1.1-.1,1.6,0,3.3,0,4.9,0,.1,0,.1,0,.1.1,0,.5,0,.9,0,1.4,0,.1,0,.2-.2.2-.8,0-1.6,0-2.4,0h0Z"></path>
  <path class="st0" d="M56.3,15c-.8,0-1.6,0-2.4,0-.1,0-.2,0-.2-.2,0-.5,0-.9,0-1.4,0-.1,0-.1.1-.1,1.6,0,3.2,0,4.9,0,.1,0,.1,0,.1.1,0,.5,0,1,0,1.4,0,.1,0,.1-.1.1-.8,0-1.6,0-2.4,0h0Z"></path>
  <path class="st0" d="M50.2,20c0,.1,0,.2-.1.4-.1.4-.3.8-.4,1.2,0,0,0,.1-.2.1-.7,0-1.3,0-2,0s-.1,0-.2,0c-.2-.5-.4-1-.5-1.5,0,0,0,0,0,0h3.5,0Z"></path>
  <path class="st0" d="M49.1,23.3c-.2.5-.4,1.1-.6,1.6-.2-.6-.4-1.1-.6-1.6h1.1Z"></path>
</svg>