<?xml version="1.0"?>
<svg id="Layer_1" xmlns="http://www.w3.org/2000/svg" version="1.1" viewBox="0 0 27.9 34.8">
  
  <defs>
    
  </defs>
  <path class="st0" d="M27.9,0v26.9c0,0-27.9,0-27.9,0V0h27.9ZM3.3,1.2c-.2,0-.4-.2-.6,0,.1.2.6.3.6,0ZM3.8,1.4c-.2.2.6.5.7.2,0-.2-.6-.3-.7-.2ZM5.6,2.1c.1-.3-.5-.4-.6-.2s.5.3.6.2ZM4,2.3v-.2s-.6,0-.6,0v.2s.6,0,.6,0ZM5.3,2.7c0-.4-.5-.4-.7-.2.2.2.5.1.7.2ZM6.5,3.1c0-.4-.5-.5-.8-.3,0,.4.5.4.8.3ZM10.9,2.9c0,.2.5.4.5.2s-.4-.3-.5-.2ZM6.8,3.1c-.2.4.8.6.8.4,0-.4-.5-.4-.8-.4ZM6.1,3.6c.1-.3-.6-.4-.7-.2,0,.3.6.3.7.2ZM8.1,3.8c0,0,.6.2.6,0s-.5-.4-.7-.3c0,0,0,.2,0,.2ZM16.2,3.9c0,0-.4-.6-.6-.3.2.2.3.3.6.3ZM6.6,3.7c-.4.1.4.7.7.3,0-.3-.4-.4-.7-.3ZM12.2,4c0-.3-.3-.4-.5-.4,0,.3.3.4.5.4ZM9.7,4.2c.1-.3-.6-.4-.6-.2,0,.3.3.2.6.2ZM16.1,4.4c.1-.3-.6-.6-.6-.4s.4.4.6.4ZM7.7,4c-.3.5.7.6.8.3s-.6-.4-.8-.3ZM13,4.4c0-.3-.2-.3-.5-.3,0,.3.2.3.5.3ZM11.4,4.2c-.2.3.6.6.7.4s-.5-.4-.7-.4ZM8.8,4.4c0,0-.2.1-.2.2,0,.3.8.6.9.3s-.5-.6-.8-.5ZM10.7,4.7c0-.2,0-.2-.2-.3-.5-.2-.2.4.2.3ZM16.1,4.8c.1,0-.5-.6-.7-.5,0,.3.4.5.7.5ZM15.1,4.8c0-.2-.4-.4-.5-.3,0,.3.3.4.5.3ZM12.3,4.6c-.2.4.6.7.7.4s-.5-.5-.7-.4ZM8,5.1c0-.4-.4-.5-.7-.3,0,.3.4.3.7.3ZM10,4.8c-.7.1.3,1,.8.6.2-.4-.4-.7-.8-.6ZM16,5.3c.1-.3-.6-.7-.7-.4,0,.3.4.5.7.4ZM15,5.4c0-.4-.3-.5-.6-.5,0,.3.3.5.6.5ZM13.9,5.5c.1-.3-.6-.6-.7-.4s.5.5.7.4ZM8.6,5.1c-.4.1.4.7.7.3,0-.3-.4-.4-.7-.3ZM12.4,5.7c-.4,0-.3,0-.6.1-.2-.4-.3-.6-.9-.5-.2.3.3.6.6.6s.2,0,.3-.1c0,.2.1.4.3.5-.9-.1-.5.6,0,.7s.4-.3.7.3c-.6.2-.5.3-.3.7-.5,0-.4.5-.1.8l-.5.2-.4-.6h.5c0,0,0-.2,0-.2-.2-.9-1.8-.8-.8.2-.7,0-.7.4-.3.8-.5,0-.7.4-.3.7s1.1,0,.8-.4-.2-.1-.3-.2c.2,0,.3,0,.5,0s0-.2.2-.2c0,.3.1.4.3.6-.1,0-.3,0-.4.2-.3.9,1.7,1.2.9,0h.4c0,0,.4.5.4.5-1-.2-.1,1.1.4.7s0-.5-.2-.6h.6c0,0,.3.3.3.3-.5,0-.6.4-.2.8s.2.1.4.3c-.2,0-.6-.2-.6.2,0,.8,1.6.8.6-.2.7,0,.6-.4.3-.8h.4c0,0,.4.4.4.4-.9,0,0,1.2.4.8.2-.3,0-.5-.2-.7h.5c0,0,.3.3.3.3-.9.2.1,1.4.6,1s-.2-.7-.2-.8h.4c0,.1.3.3.5.4h-.4c-.2,1.2,1.7,1.2.5,0h.4c.2-.4,0-.7-.4-.9h.4c.1-.4-.2-.8-.5-.9s-.5.2-.7-.4l.4-.2c.3.9,1.4.7.5-.2.7.1.4-.4,0-.7h.3c.2-.2-.2-.6-.4-.7s-.4,0-.5,0-.2-.3-.3-.4c.1,0,.3,0,.3-.2-.1-.3-.3-.5-.6-.6-.5,0-.2,0-.6-.3s-.5,0-.6-.1c0,0-.1-.3-.3-.3h.3c0-.4-.2-.5-.4-.7,0,0,.3,0,.3,0,.4-.3-.8-.9-.6-.4s.2.2.3.3c-.2,0-.3,0-.5,0,0,.2,0,.4.2.5h-.4c-.2-.2-.3-.3-.6-.4s-.2,0-.3,0c-.2,0-.3-.5-.8-.5s0,.5,0,.6h-.4c0-.2-.3-.3-.5-.5.2,0,.6.2.5-.2s-.9-.5-.8-.2.3.3.3.4ZM16.4,5.6s.2.1.2.1c.5.1-.1-.5-.3-.4,0,0,0,.2,0,.2ZM9.6,5.5c-.3.1.1.6.5.6.6,0,0-.8-.5-.6ZM14.3,5.5c0,.4.4.6.6.4-.1-.3-.3-.4-.6-.4ZM10.7,5.9c-.5.1.1.7.5.7.6,0,0-.9-.5-.7ZM16.7,6c-.1-.1-.3-.2-.5-.2,0,.3.3.4.6.4,0,0,0-.2,0-.2ZM3.9,6.1c-.4.1.2.4.4.2-.1-.1-.2-.2-.4-.2ZM6.9,6.4c.6.3.6-.3,0-.3v.3ZM9.5,6.3v.2c.4.7.9-.2,0-.2ZM16.8,6.8c0-.2-.2-.4-.4-.5-.5,0,0,.6.4.5ZM2.2,6.5c-.1,0-.1.2,0,.2.5.2.5-.4,0-.2ZM5.1,6.5c-.3.1,0,.5.4.4s.2-.6-.4-.4ZM7.9,6.5c-.1.4.6.6.6.3s-.5-.3-.6-.3ZM10.4,6.7c-.2.3.5.7.7.5s-.6-.7-.7-.5ZM19.3,7c0,0-.4-.5-.5-.4,0,.3.2.4.5.4ZM18.5,7.1c0-.3-.2-.4-.5-.4,0,.3.2.4.5.4ZM3.8,6.8c-.2,0-.4,0-.5,0,.2.2.6.3.5,0ZM6.4,6.9c-.3.1,0,.5.4.5.6,0,.2-.7-.4-.5ZM17.7,7.3c0-.4-.3-.5-.6-.5,0,.3.3.5.6.5ZM9.2,6.9c-.4.3.4.7.6.5s-.3-.5-.6-.5ZM11.7,7c0,0-.2,0-.3.2-.1.3.8.9,1,.4,0-.3-.4-.5-.7-.5ZM5.2,7.4c0,0,0-.3-.1-.3-1.1,0-.1.6.1.3ZM19.4,7.6c.1-.3-.5-.6-.6-.4s.4.5.6.4ZM8.3,7.7c.4-.3-.5-.8-.8-.5s.5.7.8.5ZM18.6,7.8c0-.2-.2-.5-.4-.5-.5,0,.1.7.4.5ZM10.3,7.3c-.5.2.3.9.7.6.2-.4-.4-.7-.7-.6ZM6.5,7.7c-.7-.3-.7.3,0,.3v-.3ZM9.4,8.2c.2-.3-.4-.7-.7-.4-.2.4.6.6.7.4ZM19.4,8.1c.1-.2-.5-.6-.5-.4s.3.4.5.4ZM18,7.8h0c.7,1.3,1.3.1,0,0ZM7.4,8.3c.6.3.6-.3,0-.3v.3ZM10,8.2c-.4.4.3.7.6.5.1-.4-.3-.6-.6-.5ZM9,8.6c-.2-.1-.4-.1-.4.2h.4c0,0,0-.2,0-.2ZM9.8,8.9c-.5.2.2.9.6.5.2-.3-.2-.7-.6-.5ZM18.8,8.9c-.2.3.6.9.8.7s-.4-.8-.8-.7ZM19.8,9.3c-.5.2.8,1.3.7.6s-.5-.7-.7-.6ZM21.2,9.7c0-.2-.2-.4-.5-.4,0,.3.2.4.5.4ZM8.2,9.5c-.2.3.3.6.5.4v-.4c-.1,0-.5-.1-.5,0ZM19.6,10.4c.2-.6-1.2-1.1-.7-.3s.4.4.7.3ZM22.1,10.2c0-.2-.3-.6-.4-.5-.3,0,.3.6.4.5ZM9.5,9.8c-.5,0-.2.7.3.7.7,0,.4-.9-.3-.7ZM21.4,10.6c.2-.3-.6-.9-.8-.7s.4.8.8.7ZM20.5,10.8c0-.4-.3-.7-.7-.7,0,.4.3.7.7.7ZM23.1,10.8c0-.3-.3-.7-.7-.6,0,.3.3.6.7.6ZM10.8,10.2c-.7.1,0,1.2.6.8.3-.4-.2-.8-.6-.8ZM8.5,10.9c.3-.3-.4-.9-.8-.6s.4.9.8.6ZM22.2,11c.1-.4-.6-.9-.6-.4s.4.5.6.4ZM19.5,11.1c.1-.3-.3-.8-.6-.6s.3.7.6.6ZM24.1,10.5c0,0,.3.6.5.4,0-.1-.4-.4-.5-.4ZM23.8,11.2c.1-.2-.4-.7-.5-.6,0,.3.2.6.5.6ZM21.4,11.3c0-.3-.2-.7-.6-.6,0,.3.3.6.6.6ZM8.9,10.8c-.4.6.7,1.1.9.6s-.6-.9-.9-.6ZM12.6,11.5c.3-.3-.4-1-.8-.6-.2.4.5.9.8.6ZM23.1,11.5c0-.3-.3-.6-.6-.6,0,.4.2.6.6.6ZM20.4,11.5c0-.3-.2-.5-.5-.5,0,.3.2.5.5.5ZM25.4,11.5c0-.2-.1-.5-.4-.5,0,.2.2.4.4.5ZM19.5,11.9c0-.3-.2-.7-.5-.7-.7,0,0,.9.5.7ZM22.1,11.4c0,0-.3-.2-.4-.1,0,.2.2.5.4.5s0-.3,0-.4ZM24.7,11.7c0-.2-.3-.6-.5-.5,0,.2.3.6.5.5ZM7.3,11.4c-.4.1-.2.8.4.8s.4-1-.4-.8ZM10.4,11.4c-.3.1-.1.8.5.7s.1-.9-.5-.7ZM13.2,11.4c-.2,0,0,.5.2.6.6.1.3-.7-.2-.6ZM23.9,11.9c0,0-.3-.6-.5-.5,0,.3.2.5.5.5ZM20.5,12.4c0-.3-.3-.6-.6-.6,0,.3.2.7.6.6ZM9.4,12.6c.3-.5-.4-.9-.8-.6-.2.5.4.8.8.6ZM11.8,12c-.2,0,0,.4.2.4.4,0,.2-.5-.2-.4ZM19.3,12.3c-.3-.3-.7,0-.4.3s.8.1.4-.3ZM5.8,12.3l-.2.2c0,.4,1,.5.6-.2h-.5ZM20.9,12.3c-.1.4.6.8.5.4s-.3-.4-.5-.4ZM10.6,12.5c0,0-.3,0-.4,0v.4s.4,0,.4,0c0-.1,0-.3,0-.4ZM13,12.5c-.3.4.6.9.6.3s-.3-.4-.6-.3ZM15.6,12.9c0,0,.4.2.5,0,.1-.4-.2-.7-.6-.5,0,0,0,.4.1.4ZM6.9,12.6c-.4.4.5,1,.8.5s-.5-.8-.8-.5ZM20,12.7h0c.5,1.2,1.1.1,0,0ZM14.1,12.9c-.4.3.3,1.1.7.8.4-.4-.4-1.1-.7-.8ZM16.6,12.9c-.3.3.4,1.1.7.7s-.4-1-.7-.7ZM8.5,13c-.3.3.1.6.5.4.1-.3-.2-.5-.5-.4ZM19.5,13.8c0-.5-.2-.8-.7-.7,0,.5.2.8.7.7ZM5.4,13.2c-.4,0-.5.7,0,.8.9.2.8-.9,0-.8ZM20.9,13.2c0,.2.4.9.6.7s-.2-.9-.6-.7ZM18.4,14.3c.3-.4-.4-1.1-.8-.8s.3,1,.8.8ZM13,13.5c-.3,0-.3.5,0,.6.6.2.5-.6,0-.6ZM15.4,13.6c0,.3,0,.5.3.6.6.1.2-.9-.3-.6ZM6.8,13.6c-.3,0-.3.5,0,.6.5.2.6-.7,0-.6ZM22,13.8c-.2.3.5,1,.5.5s-.4-.6-.5-.5ZM14.1,14c-.6,0,0,1.1.5.9s0-.9-.5-.9ZM18.9,14c-.4.1.2,1,.5.8s-.2-.9-.5-.8ZM3.8,14.5c.2.2.5.1.6-.2,0-.6-1-.2-.6.2ZM16.7,14.5c0,0,.3.1.4,0,0-.2-.2-.4-.5-.4,0,.1,0,.3,0,.4ZM4.9,15c.2.2.7,0,.5-.4s-.9,0-.5.4ZM23.5,15c0-.3-.2-.6-.5-.6,0,.3.2.6.5.6ZM17.7,14.5c-.3.2.2,1,.6.7.3-.3-.3-.9-.6-.7ZM15.3,14.6c-.4.1,0,.8.4.6s0-.7-.4-.6ZM20.5,15.3c.1-.3-.1-.6-.5-.6,0,.3.2.5.5.6ZM13.2,15.3c.1-.8-.9-.8-.5,0h.5ZM22.5,15.2c0-.3-.1-.4-.4-.4,0,.2.2.4.4.4ZM18.9,15.1c-.3.2,0,.8.3.9.8.2.3-1.1-.3-.9ZM4,15.3c-.2,0-.5-.1-.6.1-.2.5.7.4.6-.1ZM13.9,15.2c-.5.1,0,1,.5.9s0-1-.5-.9ZM23.5,15.8c0-.2-.1-.4-.4-.5-.2,0,0,.7.4.5ZM20.6,16.5c0-.3,0-.7-.4-.8-.7-.2-.2,1,.4.8ZM15.5,16.4c.1,0,0-.5-.2-.6-.6,0-.2.8.2.6ZM17.7,15.8c0,.3,0,.4.3.5.2-.3,0-.6-.3-.5ZM2.7,15.9c-.2,0-.4,0-.5.1-.2.4.8.5.5-.1ZM12.6,16c-.3,0-.2.5,0,.6.6.1.3-.7,0-.6ZM18.8,16.2c-.3,0,0,.8.3.8.7.2.2-1-.3-.8ZM13.7,16.5c-.4.3,0,1,.5.7s0-.9-.5-.7ZM20,16.8c-.5.1.1,1.3.6,1,.2-.4-.1-1-.6-1ZM15.2,17.1c0,0-.2,0-.3,0-.4.2,0,.8.3.6.1-.1,0-.4,0-.5ZM12.4,17.5c-.3.1,0,.7.2.6s0-.7-.2-.6ZM21.2,17.5c-.3,0,.1.9.4.8s-.1-.9-.4-.8ZM19.3,18.2c.1,0,0-.7-.4-.5s.2.6.4.5ZM13.9,18.7c.2-.4-.1-1-.6-.7-.2.4.1.9.6.7ZM20.6,19c0-.4,0-.9-.6-.8-.2.4.1.9.6.8ZM14.6,18.5c-.3,0-.2.5,0,.6.6.2.4-.7,0-.6ZM21.1,18.8c-.4.1.2,1.2.6.9s-.2-1.1-.6-.9ZM20.1,19.5c-.3,0,0,.8.3.7.3-.2,0-.8-.3-.7ZM13.1,19.6c-.1.2-.1.6.2.7.6.2.5-.9-.2-.7ZM21.3,20.1c-.3,0,0,.6,0,.8.6.6.4-.9,0-.8ZM22.2,21.1c0,.4,0,.8.5.9.3,0,0-1.1-.5-.9ZM13.3,21.9c.2-.2,0-.8-.4-.6-.3.2,0,.9.4.6ZM21.6,22.3c0-.2,0-.8-.4-.7s0,.8.4.7ZM22.6,23.3c0-.3,0-.6-.2-.8-.5-.4-.3.8.2.8ZM22.9,24c-.2,0,0,.8.3.8.2-.1,0-.8-.3-.8Z"></path>
  <path class="st0" d="M15.4,27.2v2.6c0,.3-.4.5-.7.6-.5,0-.7-.1-1-.1s-.6.2-1,.1-.4-.2-.5-.2c-.1,0-.4.2-.9.2s-.5,0-1,0c-.8,0-1.7,0-2.5,0-.1,1.1-1,1-1.9.8v-.5c.6.2,1.3.3,1.2-.4-1,.3-1.6-.8-1.2-1.7s1.2-.7,1.8-.4v1.7h.5v-1.6c.3-.3,1.4-.3,1.7,0s.2,1,.2,1.4h-.7c0-.4.3-1.4-.5-1.1v1.4h1.5s.2-.2.2-.2v-1.7h.7v1.7c.1.2.5.2.6,0v-1.7h.7v1.7c.1.2.4,0,.6,0v-1.8h.7v1.8c.2,0,.9.1.9,0v-2.5h.7ZM7.2,28.5c-.9-.3-.8,1.7,0,1.4v-1.4Z"></path>
  <path class="st0" d="M20.7,29.9c.2,0,.4-.2.4-.4,0-.5-1.2-.6-1.2-1.4s1.2-1,1.8-.7v.4c-.2,0-1.2-.3-1.2.2s1.4.7,1.2,1.6-.1.2-.1.3h.6c0-.7,0-1.7.7-1.8,1.7-.3,1.7,2.4.1,2.3s-.4-.2-.5-.2-.3.2-.5.2c-.8,0-1.7,0-2.4,0,0,1-1.1,1-1.8.8v-.5c.6.2,1.2.3,1.2-.4-.9.2-1.4-.4-1.3-1.3s1.2-1.2,1.9-.8v1.7c.3,0,.8,0,1.1,0ZM19,28.5c-.7-.1-.6.5-.6,1s.3.5.6.4v-1.4ZM23.4,28.6c0,0-.3,0-.4,0-.1.1-.2,1.3,0,1.3.6.2.5-1.1.3-1.3Z"></path>
  <path class="st0" d="M3.2,28.1h.7v1.7c0,.5-.9.6-1.3.6-.6,0-.5,0-1,0-1.7.2-1.6-2.1-.4-2.3s.8,0,1.1.2v1.5c.1.2,1,.2,1,0v-1.7ZM1.6,28.5c-.7-.2-.7.7-.6,1.1s.6.4.6.3v-1.4Z"></path>
  <path class="st0" d="M19,32.7s.8-.2.9-.2c.3,0,.5.1.7.2s.5-.2.7-.1.7.2.7.4v1.9c-.2,0-.5,0-.7,0v-1.7h-.5v1.7c-.2.2-.4,0-.7,0v-1.7c0-.2-.5-.2-.6-.2v1.8c-.2,0-.5,0-.7,0v-2Z"></path>
  <path class="st0" d="M14.3,31.6l.9,3.1h-.6s-.2-.6-.2-.6h-.9s-.2.6-.2.6h-.6s1-3.1,1-3.1h.7ZM14.3,33.6s-.2-1-.3-1.1,0-.2-.1-.2l-.3,1.2h.7Z"></path>
  <path class="st0" d="M10.7,31.5v3.1c-.7.2-1.7.3-1.9-.6s.4-1.6,1.3-1.4v-1h.7ZM10,32.9c-.9-.2-.9,1.6,0,1.4v-1.4Z"></path>
  <path class="st0" d="M4,31.7v.4c-.3,0-1.2-.3-1.2.2s1.2.5,1.3,1.3-.6,1.1-1.3,1-.9,0-.6-.6c0,0,1.1.4,1.2-.2s-1.3-.5-1.3-1.5,1.2-1,1.8-.7Z"></path>
  <path class="st0" d="M6.3,34.6c0,.2-.5,0-.6.1v-.2c-1.1.7-1.7-.6-1.2-1.5s1.3-.7,1.8-.3v2ZM5.7,34.2v-1.3c0-.2-.6,0-.6.4s0,.8.2.9h.5Z"></path>
  <path class="st0" d="M18.6,32.6v2.2c-.2,0-.4,0-.5,0s0-.1,0-.1c0,0-.2.1-.3.1-1.2.2-1.3-1.5-.4-2.1s.9-.2,1.4,0ZM17.9,32.8c-.6,0-.6.5-.6,1s.6.5.6.3v-1.3Z"></path>
  <path class="st0" d="M7.3,32.5v1.7h.1c0,0,.4,0,.4,0v-1.7c.2-.2.4,0,.7,0v2.1c-.4.1-1.4.3-1.6,0s-.2-.4-.2-.4v-1.7h.7Z"></path>
  <path class="st0" d="M24.2,34.5c-.5-.5-.4-1.7.3-2,1.6-.6,1.8,2.5,0,2.2s-.3-.1-.4-.2ZM24.7,32.9c-.3,0-.3,1.2,0,1.3h.2c.4,0,.4-1.5-.2-1.3Z"></path>
  <path class="st0" d="M26.4,28.1v2.5s-.1.3-.2.4c-.4.5-1.2.4-1.7.2v-.4c.4.1,1.2.2,1.2-.2v-2.4h.7Z"></path>
  <path class="st0" d="M3.9,30.4v-.5c0,0,.8,0,.8,0,.3,0,.3-1,.1-1.3s-.6,0-.7-.1v-.3c.9-.3,1.6.3,1.5,1.3s-.4.9-.8.9h-.9Z"></path>
  <path class="st0" d="M27.6,27.2c-.3.3,0,.5,0,.7s0,.3,0,.4c0,.7,0,1.3,0,2h-.7c0-.7,0-1.4,0-2.1s0-.3,0-.4c0-.2-.2-.3-.1-.6s.5,0,.7-.1Z"></path>
  <path class="st0" d="M25.2,27.2v3.1c-.2,0-.5,0-.7,0v-3h.7Z"></path>
  <path class="st0" d="M16.7,27.2v3c-.2.2-.4,0-.7,0v-3.1h.7Z"></path>
  <path class="st0" d="M23.8,32.6v.4c-.9-.3-1,.7-.7,1.2h.6c0,.1,0,.5,0,.5-2.1.7-2-2.8,0-2.1Z"></path>
  <path class="st0" d="M16.1,34.7h-.5s0-.1,0-.1v-2c.3-.1,1-.2,1.2,0s0,.3,0,.4c0,0-.5-.1-.5,0v1.7Z"></path>
  <polygon class="st0" points="11.7 32.5 11.7 34.7 11.1 34.7 11.1 32.6 11.2 32.5 11.7 32.5"></polygon>
  <path class="st0" d="M11.2,31.7c.3-.3.8.1.5.4s-.8-.2-.5-.4Z"></path>
  <path class="st0" d="M3.4,30.7c.6-.2.7.7,0,.6s-.3-.5,0-.6Z"></path>
  <path class="st0" d="M3,31.2c-.2.2-.7,0-.6-.3.2-.3.5-.3.7,0,0,0,0,.2,0,.3Z"></path>
  <path class="st0" d="M1.8,27.2c.5,0,.5.7,0,.6s-.3-.5,0-.6Z"></path>
  <path class="st0" d="M1,27.2c.4-.1.6.4.3.5-.5.2-.7-.4-.3-.5Z"></path>
  <path class="st0" d="M17.9,9.7c0,0,.2,0,.2.2-.2,0-.4,0-.4.1l-.4-.6h.4s0,.2.2.2Z"></path>
  <path class="st0" d="M18,11.5h-.5c0,.1-.3-.4-.3-.4h.4c0,.1.2.2.3.4Z"></path>
  <path class="st0" d="M13,6.7h-.4s0,0,0-.1c0-.1-.2,0-.2-.2h.5c0,0,.2.3.2.3Z"></path>
  <path class="st0" d="M13.2,9c.2,0,.6.3.3.4s-.6-.3-.3-.4Z"></path>
  <path class="st0" d="M16.7,10.6c0,0,.1.3,0,.4-.2,0-.4-.2-.4-.5.1,0,.3,0,.4,0Z"></path>
  <polygon class="st0" points="18.1 9.1 17.7 9.2 17.5 8.7 17.8 8.7 18.1 9.1"></polygon>
  <path class="st0" d="M15.3,10c.5-.1.6.6.2.3s-.2-.2-.2-.3Z"></path>
  <path class="st0" d="M14.4,9.5c.1,0,.5.2.3.4h-.3s-.1-.1-.1-.1v-.2Z"></path>
  <path class="st0" d="M13.4,8.3l.4.2c0,.3-.7,0-.4-.2Z"></path>
  <path class="st0" d="M13.7,6.2c.3,0,.7.4.3.4s-.3-.1-.3-.4Z"></path>
  <path class="st0" d="M13.8,7.6c.3.3-.3.4-.4,0s.2-.2.4,0Z"></path>
  <path class="st0" d="M16.6,7.6c.4,0,.6.6.2.3s-.2-.2-.2-.3Z"></path>
  <path class="st0" d="M16.5,9.8c.2,0,.4,0,.4.3s-.5-.1-.4-.3Z"></path>
  <path class="st0" d="M16.5,9c.2,0,.6.2.3.4-.1,0-.3-.3-.3-.4Z"></path>
</svg>