<?xml version="1.0"?>
<svg id="Layer_1" xmlns="http://www.w3.org/2000/svg" version="1.1" viewBox="0 0 43 34.2">
  
  <defs>
    
  </defs>
  <path class="st0" d="M24.9,26.6v.3c0,1.7,0,3.3,0,5v2.1h0c0,.2,0,.2,0,.2h-3.8c0,0,0,0,0,0h0v-17.1c0-.2,0-.2.2-.2,1.4,0,2.7,0,4.1,0,.2,0,.2,0,.3.2.3,1.5.7,2.9,1,4.4.2.7.3,1.5.4,2.2,0,.3,0,.6.1.9,0,0,0,0,0,.1,0,0,0,0,0-.1,0-.2,0-.4,0-.6,0-2.3,0-4.6,0-6.9s0-.2.2-.2h3.7c.2,0,.2,0,.2.2v17c0,.2,0,.2-.2.2-1.1,0-2.1,0-3.2,0-.4,0-.8,0-1.2,0q-.1,0-.2-.1c-.2-.7-.3-1.4-.5-2.1-.2-.8-.4-1.6-.5-2.3-.1-.6-.2-1.3-.3-1.9,0-.3,0-.6-.1-.9,0,0,0-.1,0-.2,0,0,0,0,0,0Z"></path>
  <path class="st0" d="M9.8,26.6c0-2.5,0-4.9,0-7.4,0-.6.2-1.1.6-1.6.2-.3.5-.5.8-.6.4-.1.7-.2,1.1-.3.4,0,.7,0,1.1,0,.9,0,1.8,0,2.8,0,.5,0,1,0,1.5,0,.7.1,1.4.4,1.8,1,0,.1.2.3.2.4.2.4.2.9.3,1.4,0,.7,0,1.5,0,2.2,0,4,0,8.1,0,12.1,0,.2,0,.2-.2.2h-4.2c-.2,0-.2,0-.2-.2,0-.9,0-1.8,0-2.7,0,0,0-.2,0-.3,0,0,0-.1-.1-.1-.3,0-.5,0-.8,0,0,0,0,0,0,0s0,0,0,.1v3c0,.2,0,.2-.2.2h-4.3c-.2,0-.2,0-.2-.2,0-2.2,0-4.4,0-6.6,0-.3,0-.6,0-.8ZM15.4,23.9c0-1.2,0-2.3,0-3.5,0,0,0-.2,0-.3,0-.2-.3-.4-.5-.3-.2,0-.4.2-.4.5,0,.2,0,.3,0,.5,0,1.3,0,2.7,0,4,0,.5,0,1.1,0,1.6,0,.4,0,.8,0,1.1,0,.2,0,.2.2.2.2,0,.4,0,.6,0q.2,0,.2-.2h0c0-1.2,0-2.4,0-3.6Z"></path>
  <path class="st0" d="M36.9,21.9c0-.3.1-.7.2-1,.1-.9.3-1.9.6-2.8.1-.4.2-.8.3-1.2q0-.1.2-.1c1.4,0,2.8,0,4.2,0,0,0,.2,0,.3,0,0,.2-.1.4-.2.6-.5,1.5-1.1,3-1.6,4.6,0,0,0,0,0,.1,0,.1,0,.1-.2.2-.2,0-.4.1-.7.2,0,0,.2.1.3.2,0,0,0,0,.1,0,.2.1.2.2,0,.4,0,0-.2.1-.3.2-.2.1-.5.3-.7.4,0,0,0,0,.1.1.2.2.4.4.6.6,0,0,.1.1.2.2,0,.1,0,.2,0,.3-.2,0-.5.2-.7.2-.3,0-.6.2-.9.3,0,0-.1,0-.2,0,0,0,.1,0,.2,0,.3.1.6.2.9.4,0,0,0,0,0,0,.1,0,.1.1,0,.2,0,0-.2.2-.2.2-.2.1-.4.3-.5.4,0,0,0,0,0,0,0,0,0,0,.1,0,.4,0,.7.1,1.1.2,0,0,0,0,0,0,0,0,.1,0,.1,0,0,0,0,0,0,.1-.4.3-.7.5-1.1.7,0,0-.2,0-.2.2,0,0,.2,0,.2.1.3.1.6.2.9.3,0,0,.2,0,.2.1,0,0,0,.1-.2.2-.1.1-.3.2-.4.3-.2.1-.3.2-.4.4.2,0,.4.1.5.1.4,0,.8.2,1.2.2,0,0,.2,0,.2,0,0,0,0,.1-.1.1-.2.1-.5.3-.7.4-.1,0-.3.2-.4.3,0,0,0,0,.1,0,.3,0,.5,0,.8.1.2,0,.3,0,.5,0,0,0,0,0,.1,0,0,0,0,0,0,0-.3.1-.5.3-.7.5-.1.1,0,.2,0,.2,0,0,.1,0,.2,0h1.1c.2,0,.3,0,.2.3,0,.2,0,.4-.2.5,0,0,0,0,0,.1,0,0,0,0,.1,0,.2,0,.5,0,.7,0,.2,0,.2,0,.2.1,0,.3.2.5.2.8,0,0,0,0,0,0,0,.1,0,.1,0,.1-.1,0-.3,0-.4,0h-3.9c-.2,0-.2,0-.2-.2-.2-1.2-.5-2.3-.7-3.5-.2-.8-.3-1.5-.4-2.3,0-.5-.2-1-.3-1.5,0,0,0,0,0,0,0,0,0,.1,0,.2,0,.3,0,.7,0,1,0,2.1,0,4.1,0,6.2s0,.2-.2.2h-4.3q-.1,0-.2-.2h0v-17c0-.3,0-.2.2-.2h4.3c0,0,0,0,0,0h0c0,1.7,0,3.2,0,4.7,0,.1,0,.2,0,.4Z"></path>
  <path class="st0" d="M16.4,8v7.6c0,.2,0,.2-.2.2h-3.1s0,0-.1,0c0,0-.1,0-.1-.1,0,0,0,0,0-.1,0-2.4,0-4.8,0-7.2,0-.1,0-.3,0-.4,0,0,0-.1-.1-.2-.2,0-.3,0-.5,0,0,0,0,0,0,0h0c0,2.4,0,4.6,0,6.8,0,.3,0,.7,0,1,0,.1,0,.1-.2.1-1.1,0-2.1,0-3.2,0q-.2,0-.2-.2c0-.9,0-1.7,0-2.6,0-4,0-8,0-11.9,0-.3,0-.5,0-.8,0-.1,0-.2.2-.2h3.2q.2,0,.2.2c0,.7,0,1.4,0,2.1,0,.7,0,1.5,0,2.2,0,.3,0,.3.3.3,0,0,.2,0,.3,0s0,0,0,0h0c0-1.6,0-3,0-4.4h0c0-.3,0-.3.2-.3h3.2c.1,0,.1,0,.1.1h0c0,2.7,0,5.2,0,7.7Z"></path>
  <path class="st0" d="M17.2,9V3.1c0-.4,0-.8,0-1.2s.2-.8.5-1.1c.3-.3.6-.4,1-.5.3,0,.6-.1,1-.1.8,0,1.6,0,2.4,0,.4,0,.8,0,1.2.2.7.2,1.2.7,1.3,1.4,0,.3.1.7.1,1.1,0,.4,0,.9,0,1.4,0,3.8,0,7.6,0,11.5h0c0,.1,0,.2,0,.2h0c-1.1,0-2.1,0-3.2,0h0c0,0,0,0,0,0h0c0-.9,0-1.6,0-2.3,0-.2,0-.3,0-.5,0-.1,0-.2-.2-.2-.1,0-.3,0-.4,0s0,0,0,0h0c0,1,0,1.9,0,2.7h0c0,.1,0,.2,0,.2h-3.2s0,0,0,0c0,0-.1,0-.1-.1,0,0,0,0,0-.1v-6.6s0,0,0,0ZM21.4,6.7h0v-2.7c0-.2,0-.4,0-.6,0-.2,0-.3-.2-.4-.1,0-.2,0-.3,0-.1.1-.2.2-.2.4,0,.4,0,.7,0,1.1,0,.9,0,1.8,0,2.6s0,1.6,0,2.4c0,.1,0,.2,0,.3,0,0,0,0,0,0,.2,0,.3,0,.5,0s0,0,0,0h0v-3.3Z"></path>
  <path class="st0" d="M25.8,8V.5h0q0-.3.2-.3c1.3,0,2.6,0,3.8,0,.5,0,1,0,1.6,0,.3,0,.6,0,.9.2.6.2,1,.7,1.2,1.3,0,.4.1.8.1,1.2,0,.6,0,1.1,0,1.7,0,.4,0,.8-.1,1.2-.1.5-.4.9-.8,1.2,0,0,0,0,0,0-.1,0-.1,0,0,.2.3.2.5.4.7.7.1.1.1.3.2.5.1.4.2.8.2,1.2,0,2,0,4,0,6s0,.2-.1.2h-3.2c-.1,0-.1,0-.1-.1v-.5c0-1.7,0-3.4,0-5.2,0-.2,0-.5,0-.7,0-.3-.1-.4-.4-.4h-.1c0,0,0,0,0,0v.2c0,.7,0,1.3,0,1.9,0,1.5,0,3,0,4.6h0c0,.1,0,.2-.1.2,0,0,0,0-.1,0h-3.1q-.2,0-.2-.2v-4.4c0-1.1,0-2.1,0-3.2ZM30,4.2c0-.2,0-.5,0-.8,0-.3-.1-.3-.4-.4,0,0,0,0-.1,0-.1,0-.1,0-.2.1,0,0,0,.2,0,.2,0,.6,0,1.2,0,1.8,0,.2,0,.3,0,.5,0,.1,0,.2.2.1.3,0,.4-.2.5-.5,0-.3,0-.7,0-1Z"></path>
  <path class="st0" d="M0,11.6v-2.1q0-.2.2-.2h3.2c0,0,0,0,0,0h0c0,.8,0,1.5,0,2.2,0,.3,0,.6,0,.9,0,.1,0,.2.1.3,0,.1.1.1.2,0,.2-.2.2-.4.2-.6,0-.7,0-1.4,0-2.1,0-.1,0-.3,0-.4,0-.2-.1-.4-.3-.5-.2-.2-.5-.3-.7-.4-.5-.3-1.1-.6-1.6-.9-.3-.2-.5-.4-.8-.6-.4-.4-.6-.9-.7-1.4,0-.6,0-1.3,0-1.9,0-.5,0-1,0-1.5,0-.4,0-.8.2-1.2C.4.8.8.4,1.3.2c.3,0,.6-.2,1-.2.9,0,1.9,0,2.8,0,.3,0,.5,0,.8,0,.2,0,.4,0,.6.2.5.2.9.6,1,1.1.1.3.2.7.2,1,0,1,0,1.9,0,2.9h0q0,.2-.1.2h-3.2q-.2,0-.2-.2c0-.4,0-.9,0-1.4s0-.5,0-.7c0-.1,0-.2-.1-.3-.1-.2-.2-.2-.3,0,0,.1-.1.3-.1.4,0,.5,0,1,0,1.6,0,0,0,0,0,.1.1.2.3.4.5.6.3.2.5.3.8.5.4.2.9.4,1.3.7.4.2.8.5,1.1.9.3.3.4.7.4,1,0,.2,0,.4,0,.6,0,1,0,2.1,0,3.1,0,.5,0,.9,0,1.4,0,.3-.1.6-.3.9-.3.5-.7.7-1.3.9-.4,0-.8.1-1.1.1-.7,0-1.5,0-2.2,0-.4,0-.8,0-1.2-.2-.8-.2-1.2-.7-1.4-1.4,0-.3,0-.6-.1-.8,0-.6,0-1.3,0-1.8Z"></path>
  <path class="st0" d="M37.9,9.3c0,.3,0,.7,0,1,0,1.8,0,3.5,0,5.3,0,.2,0,.2-.2.2h-3.1s0,0-.1,0c0,0-.1,0-.1-.1,0,0,0,0,0-.1V.5c0-.3,0-.2.2-.2h3.1q.2,0,.2.2c0,1.2,0,2.4,0,3.5,0,.2,0,.4,0,.7,0-.2,0-.4.1-.6.1-.9.3-1.8.5-2.7,0-.3.1-.6.2-.9q0-.2.2-.2h3.1c.1,0,.2,0,.1.2,0,.2-.1.4-.2.6-.4,1.4-.9,2.8-1.3,4.3-.1.5-.3.9-.4,1.4,0,0,0,.2,0,.2.6,2.3,1.2,4.7,1.8,7,.1.6.3,1.2.4,1.8,0,.1,0,.1-.1.2-.1,0-.2,0-.4,0h-2.4c-.1,0-.3,0-.4,0s-.1,0-.1-.1c0-.4-.1-.7-.2-1.1-.1-.8-.3-1.6-.4-2.4-.1-.6-.2-1.1-.3-1.7,0-.4,0-.8-.2-1.2Z"></path>
  <path class="st0" d="M2.2,27v-6.1c0-.3,0-.6,0-1,0-.1,0-.1-.2-.2,0,0-.1,0-.2,0-.5,0-1,0-1.5,0h-.1c0,0,0,0,0,0H0v-2.7H0q0-.2.1-.2h8.6c.3,0,.2,0,.2.2v2.6c0,.2,0,.2-.2.2-.5,0-1.1,0-1.6,0h0q-.2,0-.2.2c0,1.2,0,2.4,0,3.6,0,3.5,0,6.9,0,10.4,0,.3,0,.2-.2.2H2.3c0,0,0,0,0,0h0v-7.1s0,0,0,0Z"></path>
</svg>