<?xml version="1.0"?>
<svg id="Layer_1" xmlns="http://www.w3.org/2000/svg" version="1.1" viewBox="0 0 83.7 15.2">
  
  <defs>
    
  </defs>
  <path class="st0" d="M19.5,0c11.1-1,12.5,14.3,1.7,15.1C10.2,15.9,9,1,19.5,0ZM19.4,1.6c-2.2.3-4.4,2.2-5,4.4-1.3,5.2,4.1,9.2,8.8,7S26.7.7,19.4,1.6Z"></path>
  <path class="st0" d="M39.6,2.1c1.3.2,2.7,1.3,3,2.6.5,2.3-.7,3.5-2.6,4.3s-.2,0-.2.2l3.5,4.9h-2l-3.8-5.1h-4.9v5.1h-1.7V2.1h8.7ZM32.6,7.6h6.7c0,0,.6-.3.7-.3.9-.6,1.1-2.1.4-3s-1-.7-1.1-.7h-6.7v4Z"></path>
  <path class="st0" d="M71.8,14.1h-2l-1.7-3.1c-2.2.1-4.6-.2-6.8,0s-.2,0-.4,0c-.4.1-1.4,2.6-1.7,3.1h-2.1l6.2-12h2.4c0,.1,6.1,12,6.1,12ZM67.4,9.5l-3-5.7-2.7,5.7h5.7Z"></path>
  <path class="st0" d="M56.3,2.1v1.3h-9v3.7l.2.2h6.3s0-.1.1-.1l.2.2v1.2s-6.8,0-6.8,0v4.2h9v1.3h-10.8V2.1h10.8Z"></path>
  <polygon class="st0" points="1.7 2.1 1.7 12.8 10.9 12.8 10.9 14.1 0 14.1 0 2.1 1.7 2.1"></polygon>
  <polygon class="st0" points="74.4 2.1 74.4 12.8 83.7 12.8 83.7 14.1 72.7 14.1 72.7 2.1 74.4 2.1"></polygon>
  <polygon class="st0" points="11.3 2.1 9.2 6.1 7.8 6.3 9.4 2.2 11.3 2.1"></polygon>
  <path class="st0" d="M54.1.1l-4.2,1.6c0-.2.3-.5.5-.7.3-.3.6-.6.8-.9h2.9Z"></path>
</svg>