<?xml version="1.0"?>
<svg id="Layer_1" xmlns="http://www.w3.org/2000/svg" version="1.1" viewBox="0 0 47.8 23.9">
  
  <defs>
    
  </defs>
  <path id="path885" class="st0" d="M18.4,0v5h4.9V0h-4.9ZM23.3,5v4.8h4.9v-4.8h-4.9ZM23.3,9.8h-4.9v8.4c0,1.7.5,3.1,1.5,4.1s2.6,1.6,4.5,1.6,3.3-.6,3.9-1.1v-4c-.4.3-1.3.7-2.5.7s-1.4-.2-1.9-.6c-.4-.4-.6-1-.6-1.9v-7.2ZM7.8,4.5c-2.3,0-4.2.7-5.5,1.9-1.1,1-1.7,2.5-1.7,4s.4,2.5,1.3,3.4c.9.9,2.2,1.6,3.9,2l2.8.7c1.4.3,2,.9,2,1.8s-1,1.8-2.8,1.8-2.2-.4-2.9-1.1c-.4-.4-.7-1-.7-1.7l-4.2.9c.1,1.3.7,2.4,1.6,3.3,1.4,1.5,3.7,2.4,6.2,2.4s4.5-.8,5.9-2.1c1-1,1.6-2.3,1.6-3.9s-.5-2.7-1.5-3.6c-1-1-2.3-1.7-4.1-2l-2.9-.6c-1.2-.2-1.9-.8-1.9-1.6s1-1.8,2.7-1.8,1.9.3,2.5.9c.4.4.6.9.7,1.5l4.1-.9c-.1-1.2-.7-2.2-1.5-3.1-1.1-1.4-3.2-2.2-5.6-2.2ZM39.2,4.5c-2.6,0-5,1-6.7,2.7-1.7,1.7-2.8,4.2-2.8,7s1.1,5.2,2.8,7c1.7,1.7,4.1,2.7,6.8,2.7s4.9-1,6.3-2.4c1.2-1.1,1.9-2.4,2.2-3.8l-4.4-1.5c-.2.7-.6,1.4-1.2,1.9-.7.7-1.7,1.2-3,1.2s-2.5-.5-3.3-1.3c-.9-.9-1.4-2.2-1.4-3.8s.5-2.9,1.4-3.8c.9-.9,2-1.3,3.3-1.3s2.3.4,2.9,1.1c.6.6.9,1.3,1.1,2l4.4-1.5c-.3-1.3-1-2.6-2.1-3.7-1.3-1.5-3.5-2.5-6.3-2.5Z"></path>
</svg>