<?xml version="1.0"?>
<svg id="Layer_1" xmlns="http://www.w3.org/2000/svg" version="1.1" viewBox="0 0 26.9 42.8">
  
  <defs>
    
  </defs>
  <path class="st0" d="M13.4,0h9.8c1.6,0,2.9,1.3,2.9,2.9v12.8c-.1.5-.5.7-.9.5-1.5-.7-3-1.3-4.5-2-.5-.2-.8-.7-.8-1.2v-5.2c0-1.1-.5-1.6-1.6-1.6h-9.8c-1,0-1.5.5-1.5,1.5v3.7c0,1.2.6,2,1.6,2.5,5.4,2.5,10.9,4.9,16.3,7.4.2.1.4.2.6.3.3.2.5.4.4.8-.1.4-.4.5-.8.4-1.5-.4-3-.7-4.4-1.1-1.8-.5-3.6-.9-5.4-1.4-2.1-.5-4.2-1.1-6.3-1.6-2-.5-3.9-1-5.9-1.5-1.4-.3-2.2-1.3-2.2-2.8V2.9C.9,1.5,2,.1,3.7.1c3.2,0,6.5-.1,9.7-.1Z"></path>
  <path class="st0" d="M21.4,27.6v1c0,.3.1.4.4.4h.4c.6,0,.8-.2.8-.8v-1.4c0-.9.3-1.2,1.2-1.2h.6c1,0,1.7.5,2,1.5.2.7.2,1.4-.2,2.1-.5.8-1.7,1.2-2.5.7-.3-.2-.6-.2-.9,0-.4.3-.8.1-1.2.1s-.5.1-.5.4c0,1.3-1.3,1.9-2.6,1.5-.2-.1-.2-.2-.1-.4,0-.2.1-.4.3-.3.1,0,.3.1.4.1.5,0,.9-.6.7-1.1-.1-.2-.2-.1-.3-.1-1.7-.1-2.7-1.5-2.2-3.1.2-.8.9-1.3,1.7-1.3h1c.7,0,1,.3,1,1,0,.3,0,.6,0,.9h0ZM25.7,27.8c0-.5,0-.9-.4-1.2-.3-.2-.6-.3-.9-.2-.3.1-.2.4-.2.6v1.4c0,.3,0,.6.4.6.3.1.7,0,.9-.3,0-.2.2-.5.2-.9ZM20.2,27.7v-.9c0-.3-.1-.3-.4-.3-.8,0-1.2.4-1.2,1.2s.6,1.3,1.3,1.3.3-.1.3-.3c0-.4,0-.7,0-1Z"></path>
  <path class="st0" d="M3,37.9c.4-.9.8-1.7,1.1-2.5.1-.2.2-.4.3-.7.3-.5.5-.7,1-.5.4.1.5.5.5.9v5.3c0,.3-.1.4-.4.4q-.9,0-.9-.9v-2.1c0-.2,0-.4-.1-.6-.3.7-.7,1.4-.9,2-.2.4-.4.4-.8.4s-.4-.2-.5-.5c-.3-.6-.5-1.2-.8-1.9-.2.2-.1.3-.1.5v2.6c0,.3-.1.4-.4.4q-.9,0-1-.9v-5.2c0-.4.1-.5.5-.5.7-.1.9.2,1.2.8.3,1,.8,1.9,1.3,3Z"></path>
  <path class="st0" d="M6.3,26.2v-1.9c0-.2-.1-.4.1-.5.3,0,.6-.2.9.1.2.2.2.4.2.6v3.5c0,.6.2.8.8.8h1c.6,0,.7-.2.8-.8v-1.9c0-.2-.2-.6.3-.6s1,.1,1,.5c0,.8.1,1.6,0,2.4s-.6,1.3-1.4,1.4c-.7.1-1.5.2-2.2-.1-.5-.2-.9-.1-1.4,0-.6.1-.9.4-1.1,1-.2.6-.7.9-1.3,1-1.2.3-2.3.4-3.3-.6-.7-.7-.8-2.1-.2-2.8.1-.1.2-.2.3-.1.2.1.4.2.5.4.1.2,0,.3,0,.5-.2.8-.1,1.4.5,1.7.6.4,1.6.3,2.1-.1.2-.2.3-.4.4-.6,0-.1,0-.3-.2-.2-.4,0-.3-.3-.3-.5,0-.3.2-.5.5-.5h1.4c.6,0,.7-.2.7-.8-.1-.6-.1-1.2-.1-1.9Z"></path>
  <path class="st0" d="M12.7,37.4v-2.7c0-.2-.2-.6.3-.6s.9.2.9.7v.9c0,.3.1.4.4.4.5-.1,1-.1,1.5,0,.7.2,1,.7,1.1,1.3.1.6.2,1.3,0,1.9-.2.8-.6,1.2-1.4,1.5-.9.2-1.8.1-2.7,0-.3,0-.2-.2-.2-.4,0-1,0-2,0-3ZM14.6,39.9c.8,0,1-.2,1.2-1,.1-.3.1-.5,0-.8-.2-1-.6-1.3-1.6-1.1-.2.1-.4.1-.3.4v1.7q0,.8.7.8Z"></path>
  <path class="st0" d="M12.3,26.3v-2c0-.2-.1-.4.1-.5.3,0,.7-.2.9.1.2.2.2.4.2.6v3.4c0,.7.1.8.8.8q1.2,0,1.2-1.2v-1.5c0-.2-.1-.4.1-.5.3,0,.6-.2.9.1.2.1.3.3.2.6v1.9c0,1-.7,1.7-1.6,1.7h-1.2c-1,0-1.7-.7-1.7-1.7.1-.5.1-1.2.1-1.8h0Z"></path>
  <path class="st0" d="M11.6,38.5c0,.4,0,.9-.2,1.3-.3.7-1,1-1.8,1.1-1,.1-2.2-.2-2.5-1.8-.1-.8-.1-1.6.4-2.3,0-.1.1-.1.1-.2.7-.8,3-.9,3.6.4.3.4.4.9.4,1.5ZM8.3,38.5v.2c0,.8.3,1.2.9,1.2s1.1-.3,1.1-1.1v-.9c-.1-.5-.4-.7-.8-.8-.5-.1-.9.1-1.1.6,0,.2,0,.5,0,.8Z"></path>
  <path class="st0" d="M24.9,39c.3-.8.5-1.7.8-2.5.1-.4.4-.5.8-.4.3.1.5.4.3.7-.7,1.9-1.4,3.8-2.2,5.7-.1.2-1,.4-1.2.2-.1,0,0-.2,0-.3.2-.4.3-.9.5-1.3.2-.3.1-.6,0-1-.5-1.2-.9-2.5-1.3-3.8-.1-.3,0-.4.3-.4q.9,0,1.2.8c.2.7.4,1.4.6,2.1,0,.2.2.2.2.2Z"></path>
  <path class="st0" d="M20.7,37.5v-3c0-.1,0-.3.1-.3.3,0,.6-.1.8.1.2.1.3.3.3.6v5.6c0,.3-.1.3-.4.3q-.9,0-.9-.8c0-.9,0-1.7,0-2.5h0Z"></path>
  <path class="st0" d="M18.2,38.4v-1.9c0-.2-.1-.4.1-.5.3,0,.6-.1.9.1.2.2.2.4.2.7v3.4c0,.3-.1.4-.4.4q-.8,0-.8-.9v-1.3Z"></path>
  <path class="st0" d="M18.8,35.5c-.5,0-.7-.2-.7-.7s.2-.7.7-.7.7.3.7.8-.2.6-.7.6Z"></path>
  <path class="st0" d="M10.6,31.7c-.4,0-.7-.3-.7-.6s.3-.6.6-.6.6.2.6.6c0,.4-.1.6-.5.6Z"></path>
  <path class="st0" d="M15.2,31.1c0-.4.2-.6.6-.6s.6.2.6.6-.2.6-.6.6-.6-.2-.6-.6Z"></path>
  <path class="st0" d="M9.7,31.2c.1.4-.2.5-.6.5s-.6-.2-.6-.6.2-.6.6-.6c.5.1.6.2.6.7Z"></path>
  <path class="st0" d="M4.1,33c0,.4-.2.6-.6.6s-.6-.2-.6-.6.2-.6.6-.6.6.1.6.6Z"></path>
  <path class="st0" d="M2,32.4c.5,0,.7.2.7.6s-.2.6-.6.6-.6-.2-.6-.6c0-.4.2-.6.5-.6Z"></path>
</svg>