<?xml version="1.0"?>
<svg id="Layer_1" xmlns="http://www.w3.org/2000/svg" version="1.1" viewBox="0 0 67.8 30.8">
  
  <defs>
    
  </defs>
  <path class="st0" d="M15.4,0c7.1,0,13.4,4.8,15,11.6,1.3,5.5,0,10.5-4,14.6-2.5,2.6-5.5,4.1-9.1,4.5-4.8.6-9-.8-12.5-4C2.2,24.3.6,21.3,0,17.8c-.1-.3,0-.4.3-.5,1.1-.2,1.8-1.1,1.9-2.1,0-1.1-.7-2-1.8-2.2-.3,0-.4-.1-.3-.5C1.4,6.1,6.5,1.2,13,.2c.8-.1,1.6-.2,2.4-.2ZM15.3,4.3c-.6,0-1.4,0-2.1.2-4.4,1-7.4,3.6-8.6,8-1.2,4.3,0,8,3.2,11,3.1,2.8,6.8,3.7,10.8,2.4,4-1.2,6.5-4,7.6-8.1.1-.3,0-.5-.3-.5-1-.2-1.6-1.1-1.7-2,0-1.1.5-2,1.6-2.3.4-.1.4-.3.3-.7-1.4-4.6-5.8-8-10.8-8Z"></path>
  <path class="st0" d="M36.6,16.5c.8-1,1.3-2.1,1.8-3.2.6-1.5.8-3.1.7-4.8,0-.3,0-.5.4-.5q1,0,1,1c0,.6,0,1.2,0,1.8,0,.7.6,1.1,1.3,1.2.7,0,1.2-.4,1.3-1.1.2-.8,0-1.6,0-2.4s0-.5.5-.5q1,0,1,1v1.7c0,.9.6,1.2,1.4,1.2h10.3c.8,0,1.2-.4,1.4-1.2,0-.8,0-1.6,0-2.4s0-.4.4-.4q1,0,1,1.1c0,.5,0,1.1,0,1.6,0,.8.6,1.2,1.3,1.2s1.2-.4,1.3-1.2,0-1.6,0-2.4,0-.4.4-.4q1.1,0,1.1,1v1.6c0,.8.6,1.3,1.3,1.3s1.2-.4,1.4-1.2c0-.8,0-1.6,0-2.4s0-.3.3-.3q1.1,0,1.1,1.1v1.4c0,.9-.4,1.8-1.1,2.4-.8.7-2.7.7-3.5-.2-.2-.2-.3-.2-.5,0-.8.9-2.9.9-3.7,0-.2-.2-.3-.2-.5,0-.5.5-1.1.6-1.8.6h-10.6c-.7,0-1.4-.1-1.9-.7,0-.2-.2-.1-.4,0-1,.9-2.4,1-3.5.3-.2-.2-.3,0-.3.1-.4,1-.7,2-1.2,3-.2.4-.4.6-.9.5-.4.2-.8.2-1.3.2Z"></path>
  <path class="st0" d="M53.1,21.7v-3.9c0-.3,0-.4.4-.4h2.7c1.2,0,2.2.8,2.4,1.8.3,1.2-.2,2.2-1.4,2.8-.3.2-.3.3,0,.6.7,1,1.4,2,2.1,3.1,0,.1.2.2,0,.3,0,.1-.2,0-.3.1-.9.2-1.6-.1-2-1-.4-.7-.9-1.3-1.3-2-.2-.2-.3-.2-.5-.1-.4.3-.7.7-.7,1.2,0,.5,0,1,0,1.5s0,.4-.4.4q-1,0-1-1c0-1.2,0-2.3,0-3.4ZM54.5,21.7c.7-.4,1.4-.7,2.1-.9.5-.2.8-.7.7-1.2,0-.4-.4-.7-1-.7h-1.5c-.2,0-.3.1-.3.3v2.5Z"></path>
  <path class="st0" d="M41.5,21.7v-2.1c0-1.2.9-2.1,2.2-2.1h2.2c.3,0,.3.1.3.3q0,1-1,1h-1.2c-.7,0-1.1.5-1.1,1.1s.5,1.1,1.1,1.1h1.9c.2,0,.3.1.3.3q0,1.1-1,1.1h-1.1c-.8,0-1.3.5-1.2,1.1,0,.6.5,1.1,1.3,1.1h1.8c.2,0,.3.1.3.3,0,1.1,0,1.1-1.1,1.1h-1.8c-1.1-.1-1.9-1-1.9-2.1v-2.2Z"></path>
  <path class="st0" d="M47.5,21.7v-2.2c0-1.2.9-2.1,2.2-2.1h2.2c.3,0,.3.1.3.3q0,1.1-1,1.1h-1.2c-.7,0-1.1.5-1.1,1.1s.5,1.1,1.1,1.1h1.9c.3,0,.3.1.3.3q0,1.1-1.1,1.1h-1.3c-.6.1-1,.5-1,1.1s.5,1,1.1,1.1h1.9c.2,0,.3.1.3.3q0,1.1-1.1,1.1h-1.8c-1.1-.1-1.9-1-1.9-2.1.2-.7.2-1.5.2-2.2Z"></path>
  <path class="st0" d="M60,26c1.3-2.9,2.6-5.8,3.8-8.7.2.1.2.2.2.3,1.2,2.7,2.3,5.3,3.5,8,0,.3,0,.4-.3.4-.8.1-1.2-.2-1.5-.9-.2-.6-.5-1.1-.7-1.6,0-.2-.2-.3-.4-.2-.4.2-.8.4-1.3.6-.9.3-1.5.9-1.9,1.8.1.2,0,.3-.4.3h-1ZM63.8,20.6c-.3.6-.5,1.2-.9,1.9.4-.2.7-.3,1-.4s.5-.4.2-.7c0-.2,0-.5-.3-.8Z"></path>
  <path class="st0" d="M35.4,23.3h.3c.3,0,.5,0,.6.4,0,.7.9,1,1.6.8.6-.2.9-.6.8-1.3,0-.3-.2-.5-.4-.7-.3-.3-.7-.5-1.1-.6-.4-.2-.9-.4-1.3-.7-.7-.6-1-1.3-.8-2.1.2-.8.8-1.4,1.6-1.6,1.4-.4,2.8.4,3.1,1.8,0,.3,0,.5-.4.5h-.3c-.4,0-.7,0-.8-.5,0-.4-.7-.6-1.1-.5-.4.1-.6.3-.6.8s0,.5.3.6c.3.2.6.4,1,.6s.9.4,1.3.7c.9.7,1.3,1.6,1,2.7-.3,1-1.1,1.7-2.2,1.8-1.5.2-2.5-.4-3-1.8,0-.2-.2-.4-.3-.6s0-.3.2-.3c.2,0,.3,0,.5,0h0Z"></path>
  <path class="st0" d="M34.6,9v-3.9c0-.3,0-.4.4-.4q1,0,1,1v7.1c0,.3,0,.4-.4.4q-1,0-1-1v-3.2Z"></path>
  <path class="st0" d="M40.9,14.1c.4,0,.7.3.7.7s-.3.7-.7.7-.7-.3-.7-.7c-.1-.5.2-.8.7-.7Z"></path>
  <path class="st0" d="M43.2,14.7c0,.4-.3.7-.7.7s-.7-.3-.7-.7.3-.7.6-.7c.5,0,.8.3.8.7Z"></path>
</svg>