<?xml version="1.0"?>
<svg id="Layer_1" xmlns="http://www.w3.org/2000/svg" version="1.1" viewBox="0 0 81.2 21.2">
  
  <defs>
    
  </defs>
  <path class="st0" d="M0,6.1h6.3c0,1.8,0,3.5,0,5.3,0,.8-.2,1.3-.8,1.9-1.8,1.8-3.8,3.5-5.4,5.5l-.2.2V6.1Z"></path>
  <path class="st0" d="M.5,19.1c1.7-2,3.6-3.7,5.4-5.5.6-.6.8-1.1.8-1.9,0-1.8,0-3.5,0-5.3V.8C6.7.4,6.6,0,7.2,0h11.9c.1,0,.1.1.2.1-2,2-4,3.9-6,5.9s-.4.5-.4.9c0,2,0,4,.1,5.9v5.3c0,.6-.1.9-.9.9-3.8.1-7.7.1-11.6.1Z"></path>
  <path class="st0" d="M13.3,13.2c0-2,0-4-.1-5.9,0-.3.1-.6.4-.9,2-2,4-3.9,6-5.9,0,3.9,0,7.9.1,11.8,0,.7-.3.8-.9.8-1.9,0-3.7,0-5.5,0Z"></path>
  <path class="st0" d="M69.8,7.6h-9.8c-2.5,0-3.6-1.6-3.1-3.9,0-.5.4-.5.8-.5s.7,0,.8.6c0,.7-.3,1.7.4,2.2.8.6,1.9.4,2.8.4h4.8c.8,0,1.1-.2,1.1-1,0-1.4,0-2.8,0-4.1S67.3,0,68.2,0s.7.6.7,1.1c0,1.5,0,2.9,0,4.4s.2.9.9.8h5.1c.6,0,.8-.2.8-.8v-2.3c0-.5,0-.9.8-.9.7,0,.7.4.7.9s0,1.5,0,2.2c0,1,.6,1,1.2.9.7,0,1.4,0,1.3-.9,0-.8,0-1.5,0-2.3s.2-.8.8-.8.6.4.6.8c0,1.2,0,2.4,0,3.5,0,.8-.3,1-1.1,1-3.5,0-6.9,0-10.3,0Z"></path>
  <path class="st0" d="M30.1,8.8c-3.9,0-4.6-.8-4.3-4.9,0-.6.2-.8.8-.8s.8.3.7.8v.7c0,2.5.2,2.7,2.7,2.7s1.1-.2,1-1c-.1-1.1,0-2.3,0-3.4s.7-1,1.1-.7c.7.6,1.4.5,2.1.5,2.8,0,4,1.8,3.1,4.4-.2.4-.5.4-.8.4h-3.3c-.3,0-.8,0-.8.2-.2,1.9-1.7.6-2.3,1.1ZM33.9,6.3h.9c.5,0,1.2.2,1.2-.8s-.3-1.3-1.2-1.3h-1.3c-1.2,0-1.6.4-1.2,1.6.2,1,1.1.2,1.6.5Z"></path>
  <path class="st0" d="M56.9,15.1v-3c0-.8.3-1.1,1.1-1,.9.1,1.9.1,2.8.2,1.8.2,2.5,1.6,1.5,3.1-.3.4-.2.5,0,.9,1.4,1.4.9,3.3-1.1,3.8-1.2.3-2.5.1-3.8.2-.6,0-.6-.4-.6-.8v-3.4ZM60,15.8c-.9,0-1.6-.2-1.6.9s0,1.2,1,1c.8-.1,1.9.2,2-1,.2-1.1-.8-.8-1.4-.9ZM59.3,14.3c.9,0,1.8,0,1.8-.9s-1-.9-1.8-1c-.7-.1-1,.2-1,1,0,.9.6,1,1,.9Z"></path>
  <path class="st0" d="M32.2,19c-1.2.4-1.8,0-2.2-.9-.3-.5-.7-1-.9-1.6-.3-.6-.8-.6-1.3-.5-.6.1-.4.6-.4,1v1.5c0,.6-.3.7-.8.7s-.7-.1-.7-.7v-6.8c0-.5.2-.6.7-.6,1.2,0,2.4-.1,3.5.2.9.2,1.5.7,1.7,1.7s.1,1.9-.7,2.4c-.8.5-.5.9-.2,1.5s.8,1.3,1.3,2.1ZM28.2,14.7c1-.1,1.9.1,1.9-1s-1.1-1.1-1.9-1.2c-.9-.1-1,.3-1.1,1.1.1.9.4,1.2,1.1,1.1Z"></path>
  <path class="st0" d="M50.7,3.9c0,.8,0,1.7,0,2.5,0,1-.3,1.3-1.3,1.2h-1.2c-.9,0-1.6,0-1.8,1.1,0,.6-.6.8-1.2.9-.4.1-1,.2-1.1-.4,0-.4-.2-.9.6-1,.7,0,.6-.7.6-1.1v-3.8c0-.5-.2-1,.6-1s.8.5.8,1.1v1.3c0,1.4.7,1.9,2,1.5.6-.2.5-.6.5-.9V.9C49.2.4,49.2,0,49.9,0s.7.5.7,1c0,.9,0,1.9,0,2.9Z"></path>
  <path class="st0" d="M53.4,15.2v2.9c0,.6-.2.9-.8,1-.7.1-1.5.2-2.2,0-1.4-.2-2.4-1.4-2.3-2.8,0-1.4,1.1-2.6,2.6-2.7,1,0,1.4-.2,1.3-1.3,0-.4,0-.9.6-.9s.8.4.8.9c0,1.1,0,2,0,2.9ZM52,16.4c-.1-.5.3-1.4-.9-1.4s-1.6.5-1.6,1.5.6,1.3,1.5,1.3c1.3.1.9-.8,1-1.4Z"></path>
  <path class="st0" d="M38.7,3.7V1.3C38.7.8,38.3,0,39.4,0s.7.7.7,1.2c0,1.3,0,2.7,0,4,0,1,.6,1,1.2.9.7,0,1.4,0,1.3-.9,0-.8,0-1.5,0-2.3s.2-.7.6-.7.8,0,.8.7v4c0,.6-.3.7-.8.7h-3.8c-.7,0-.8-.3-.8-.9.1-1,.1-2,.1-3Z"></path>
  <path class="st0" d="M39.8,19.4c-.4-.3-.7-.2-1-.3-1.7-.1-2.2-.7-2.3-2.4v-2.1c0-.5,0-.9.7-.9s.8.3.7.8v2.1c0,.8.4,1.1,1.2,1.1s.8-.5.8-1.1v-2.2c0-.5.2-.7.6-.7s.7.2.7.6v5c0,1.4-2.6,2.4-3.8,1.6-.4-.3-.3-.6-.2-1s.4-.3.7-.2c.6.3,1.3.3,1.9-.3Z"></path>
  <path class="st0" d="M81.1,19c-2.2.6-2.6-1.3-3.8-2.1-.3.5,0,1,0,1.5s0,.8-.7.8-.8-.2-.8-.8v-6c0-.6.2-.8.8-.8s.7.3.7.8v3.6c1.3-.6,1.7-2.7,3.7-2-.2.7-.8,1.1-1.3,1.5-.9.7-.7,1.3,0,1.9.4.5.8,1,1.4,1.6Z"></path>
  <path class="st0" d="M67.6,15.5c-.9-.6-1.5-.4-2.2-.3-.3,0-.7.4-.8,0,0-.4,0-.9.4-1.2,1.6-1,3.9,0,4,1.9,0,.4,0,.8,0,1.2,0,.7.5,1.6-.6,2-1.5.5-3.3.2-3.9-.6-.7-.9-.3-2.2.9-2.6.6-.3,1.3-.3,2.2-.4ZM66.7,18c.5,0,.9-.1.9-.6s-.6-.5-1-.6c-.4,0-1,0-.9.6,0,.6.6.5,1,.6Z"></path>
  <path class="st0" d="M45.7,15.5c-.7-.7-1.4-.4-2-.4s-.7.5-.9-.1c0-.4,0-.9.5-1.1,1.9-1,3.8.1,3.9,2.2,0,.4,0,.7,0,1.1,0,.7.5,1.6-.7,1.9-1.6.4-3.2.1-3.8-.7-.6-.9-.2-2.1.9-2.5.5-.2,1.2-.3,2.1-.4ZM44.9,18c.4,0,.9,0,.9-.7s-.6-.5-1-.5-1,0-.9.6c0,.6.5.6,1,.6Z"></path>
  <path class="st0" d="M69.9,16.5v-.5c0-.7-.4-1.7.3-2,1.2-.5,2.5-.6,3.8.1.5.3.7.7.7,1.2v3.3c0,.5-.3.6-.7.6s-.7-.1-.7-.6v-2.4c0-.9-.5-1-1.3-1.1-.9,0-.7.5-.7,1.1v2.4c0,.5-.2.6-.7.6s-.7-.1-.7-.6c0-.7,0-1.4,0-2.1h0Z"></path>
  <path class="st0" d="M52,3.8V.8c0-.5,0-.8.7-.8s.7.2.7.7v6.2c0,.5-.2.7-.7.7s-.7-.3-.7-.7v-3.1Z"></path>
  <path class="st0" d="M35,16.4v1.9c0,.6-.2.8-.8.8s-.7-.3-.7-.8v-3.8c0-.6.2-.8.8-.8s.7.3.7.8v1.9Z"></path>
  <path class="st0" d="M63.4,4.5c-.4,0-1,.2-1.1-.3,0-.6-.2-1.3.2-1.9.3-.4.8-.5,1.3-.5s.4.1.4.4,0,.5-.2.5c-.5,0-1,.2-.9.8,0,.5.6.2.9.3.3,0,.5.2.4.5-.2.4-.7,0-1,.2Z"></path>
  <path class="st0" d="M77.2.8c0,.6-.2.7-.7.7s-.7-.3-.7-.8C75.8,0,76.2,0,76.6,0,77.2,0,77.3.3,77.2.8Z"></path>
  <path class="st0" d="M43.4,9.3c0,.6-.3.6-.7.6-.7,0-.7-.4-.7-.9s.4-.6.8-.6c.7,0,.6.5.6.9Z"></path>
  <path class="st0" d="M80.3,8.6c.5-.1.8.1.8.7s0,.8-.7.8-.8-.1-.8-.7c0-.6.2-.9.7-.8Z"></path>
  <path class="st0" d="M35,12.3c0,.6-.3.6-.7.6-.6,0-.7-.3-.7-.7,0-.6.3-.7.8-.7.5,0,.7.3.6.8Z"></path>
  <path class="st0" d="M35,1.1c0,.5-.2.7-.7.7s-.7-.1-.7-.7.2-.6.6-.6c.5,0,.9,0,.8.6Z"></path>
  <path class="st0" d="M40.6,8.5c.6-.1.6.3.6.8s0,.7-.6.7-.7-.2-.7-.7.1-.8.7-.8Z"></path>
</svg>